<svg width="173" height="35" viewBox="0 0 173 35" fill="none" xmlns="http://www.w3.org/2000/svg">
<path d="M17.1396 4.40527C18.1553 4.40527 19.0439 4.53711 19.8057 4.80078C20.5771 5.06445 21.2217 5.43066 21.7393 5.89941C22.2568 6.3584 22.6426 6.90039 22.8965 7.52539C23.1602 8.14062 23.292 8.7998 23.292 9.50293C23.292 10.2744 23.1602 11.0166 22.8965 11.7295C22.6426 12.4326 22.2861 13.1016 21.8271 13.7363C21.3779 14.3711 20.8457 14.9668 20.2305 15.5234C19.6152 16.0801 18.9561 16.5879 18.2529 17.0469C17.5498 17.5059 16.8174 17.916 16.0557 18.2773C15.3037 18.6387 14.5566 18.9414 13.8145 19.1855C14.3418 19.6543 14.8203 20.2012 15.25 20.8262C15.6797 21.4414 16.0898 22.1006 16.4805 22.8037C16.8711 23.4971 17.2568 24.21 17.6377 24.9424C18.0186 25.6748 18.4189 26.3877 18.8389 27.0811C19.2588 27.7646 19.7129 28.4141 20.2012 29.0293C20.6992 29.6445 21.2607 30.1816 21.8857 30.6406C22.5205 31.1094 23.2285 31.4756 24.0098 31.7393C24.791 32.0127 25.6846 32.1494 26.6904 32.1494L26.749 32.75C26.6221 32.7793 26.4756 32.8037 26.3096 32.8232C26.1729 32.8428 26.002 32.8574 25.7969 32.8672C25.5918 32.8867 25.3574 32.8965 25.0938 32.8965C23.8242 32.8965 22.7158 32.75 21.7686 32.457C20.8213 32.1738 19.9961 31.7832 19.293 31.2852C18.5996 30.7969 18.0088 30.2256 17.5205 29.5713C17.0322 28.9268 16.6025 28.2432 16.2314 27.5205C15.8701 26.7881 15.5527 26.0459 15.2793 25.2939C15.0059 24.5322 14.7324 23.7998 14.459 23.0967C14.1953 22.3838 13.9121 21.7246 13.6094 21.1191C13.3164 20.5039 12.9648 19.9814 12.5547 19.5518C12.3594 19.6006 12.1641 19.6396 11.9688 19.6689C11.7832 19.6982 11.5977 19.7275 11.4121 19.7568C11.4023 20.46 11.3877 21.0703 11.3682 21.5879C11.3584 22.0957 11.3438 22.5449 11.3242 22.9355C11.3047 23.3164 11.2803 23.6533 11.251 23.9463C11.2217 24.2393 11.1875 24.5225 11.1484 24.7959C11.041 25.5576 10.8848 26.207 10.6797 26.7441C10.4746 27.2715 10.2256 27.7061 9.93262 28.0479C9.63965 28.3799 9.30273 28.624 8.92188 28.7803C8.55078 28.9268 8.14062 29 7.69141 29C7.05664 29 6.46094 28.8145 5.9043 28.4434C5.35742 28.0723 4.88379 27.5205 4.4834 26.7881C4.08301 26.0557 3.76562 25.1475 3.53125 24.0635C3.30664 22.9795 3.19434 21.7246 3.19434 20.2988C3.19434 18.8047 3.35547 17.374 3.67773 16.0068C4 14.6299 4.4541 13.3555 5.04004 12.1836C5.63574 11.002 6.35352 9.93262 7.19336 8.97559C8.0332 8.01855 8.96582 7.20312 9.99121 6.5293C11.0264 5.8457 12.1445 5.32324 13.3457 4.96191C14.5566 4.59082 15.8213 4.40527 17.1396 4.40527ZM8.14551 18.6436C8.14551 18.3896 8.24316 18.1748 8.43848 17.999C8.64355 17.8135 8.91699 17.6914 9.25879 17.6328C9.23926 16.6758 9.21484 15.8018 9.18555 15.0107C9.15625 14.2197 9.13184 13.5361 9.1123 12.96C9.08301 12.2861 9.05859 11.6807 9.03906 11.1436C9.10742 11.085 9.18555 11.0361 9.27344 10.9971C9.35156 10.958 9.44434 10.9238 9.55176 10.8945C9.65918 10.8652 9.79102 10.8506 9.94727 10.8506C10.3965 10.8506 10.7578 10.9336 11.0312 11.0996C11.3047 11.2559 11.4414 11.5244 11.4414 11.9053C11.4414 13.0576 11.4414 14.127 11.4414 15.1133C11.4414 16.0898 11.4316 17.0078 11.4121 17.8672C11.7246 17.9551 12.0225 18.0674 12.3057 18.2041C12.5986 18.3311 12.8721 18.4775 13.126 18.6436C14.0244 18.3994 14.9277 18.0479 15.8359 17.5889C16.7441 17.1299 17.5596 16.5488 18.2822 15.8457C19.0146 15.1328 19.6055 14.293 20.0547 13.3262C20.5137 12.3496 20.7432 11.2266 20.7432 9.95703C20.7432 9.12695 20.626 8.41895 20.3916 7.83301C20.167 7.24707 19.8594 6.76855 19.4688 6.39746C19.0781 6.0166 18.6143 5.73828 18.0771 5.5625C17.5498 5.38672 16.9883 5.29883 16.3926 5.29883C15.3965 5.29883 14.415 5.44531 13.4482 5.73828C12.4912 6.02148 11.583 6.45605 10.7236 7.04199C9.87402 7.62793 9.08789 8.37012 8.36523 9.26855C7.65234 10.167 7.03223 11.2266 6.50488 12.4473C5.9873 13.668 5.58203 15.0547 5.28906 16.6074C4.99609 18.1602 4.84961 19.8887 4.84961 21.793C4.84961 22.623 4.88867 23.4287 4.9668 24.21C5.05469 24.9814 5.19629 25.6699 5.3916 26.2754C5.58691 26.8711 5.8457 27.3496 6.16797 27.7109C6.5 28.0723 6.91016 28.2529 7.39844 28.2529C7.66211 28.2529 7.91113 28.1992 8.14551 28.0918C8.37988 27.9844 8.58496 27.7646 8.76074 27.4326C8.93652 27.0908 9.07812 26.6074 9.18555 25.9824C9.29297 25.3477 9.34668 24.5029 9.34668 23.4482C9.34668 23.0674 9.34668 22.7305 9.34668 22.4375C9.34668 22.1348 9.34668 21.8467 9.34668 21.5732C9.34668 21.29 9.3418 21.0068 9.33203 20.7236C9.33203 20.4404 9.32715 20.1279 9.31738 19.7861C8.94629 19.6982 8.6582 19.5566 8.45312 19.3613C8.24805 19.166 8.14551 18.9268 8.14551 18.6436ZM8.89258 18.6436C8.89258 18.7412 8.90723 18.8242 8.93652 18.8926C8.97559 18.9609 9.09277 19.0195 9.28809 19.0684V18.3799C9.02441 18.4385 8.89258 18.5264 8.89258 18.6436ZM11.4121 19.0098C11.4902 19.0098 11.5635 19.0049 11.6318 18.9951C11.71 18.9854 11.7881 18.9707 11.8662 18.9512C11.7881 18.9023 11.71 18.8584 11.6318 18.8193C11.5635 18.7803 11.4902 18.7461 11.4121 18.7168V19.0098Z" fill="white"/>
<path d="M43.8449 28.28C43.9449 28.46 43.9749 28.63 43.9349 28.79C43.8949 28.93 43.7549 29 43.5149 29H39.0149C38.5749 29 38.2849 28.84 38.1449 28.52L33.3149 19.1C33.1749 18.88 32.9849 18.92 32.7449 19.22L30.0749 22.4C29.9549 22.56 29.8949 22.77 29.8949 23.03V28.31C29.8949 28.77 29.6249 29 29.0849 29H25.3049C25.0449 29 24.8649 28.95 24.7649 28.85C24.6849 28.75 24.6449 28.6 24.6449 28.4V7.31C24.6449 6.93 24.8049 6.74 25.1249 6.74H29.4449C29.7449 6.74 29.8949 6.91 29.8949 7.25V16.22C29.8949 16.4 29.9249 16.5 29.9849 16.52C30.0649 16.52 30.1549 16.46 30.2549 16.34L37.5149 7.22C37.6349 7.06 37.7649 6.94 37.9049 6.86C38.0449 6.78 38.2449 6.74 38.5049 6.74H42.1049C42.3649 6.74 42.5449 6.81 42.6449 6.95C42.7649 7.09 42.7449 7.25 42.5849 7.43L36.8249 14.18C36.6649 14.38 36.6449 14.62 36.7649 14.9L43.8449 28.28Z" fill="white"/>
<path d="M63.8481 20.75C63.8481 22.85 63.4881 24.53 62.7681 25.79C62.0481 27.05 61.0181 27.95 59.6781 28.49C58.3381 29.03 56.7381 29.3 54.8781 29.3C52.6981 29.3 50.9481 28.96 49.6281 28.28C48.3281 27.58 47.3781 26.56 46.7781 25.22C46.1981 23.86 45.9081 22.19 45.9081 20.21V7.34C45.9081 6.94 46.0681 6.74 46.3881 6.74H50.7081C51.0081 6.74 51.1581 6.92 51.1581 7.28V20.87C51.1581 22.51 51.5081 23.7 52.2081 24.44C52.9281 25.18 53.9481 25.55 55.2681 25.55C56.1081 25.55 56.8481 25.4 57.4881 25.1C58.1281 24.78 58.6281 24.27 58.9881 23.57C59.3481 22.87 59.5281 21.94 59.5281 20.78V7.31C59.5281 6.93 59.6781 6.74 59.9781 6.74H63.3981C63.6981 6.74 63.8481 6.92 63.8481 7.28V20.75Z" fill="white"/>
<path d="M67.7992 7.31C67.7992 6.93 67.9592 6.74 68.2792 6.74H83.3992C83.6992 6.74 83.8492 6.91 83.8492 7.25L83.8192 9.95C83.8192 10.37 83.6092 10.58 83.1892 10.58H73.6192C73.2392 10.58 73.0492 10.74 73.0492 11.06V15.41C73.0492 15.75 73.1992 15.92 73.4992 15.92H79.8592C80.1992 15.92 80.3692 16.08 80.3692 16.4V19.28C80.3692 19.4 80.3292 19.5 80.2492 19.58C80.1892 19.66 80.0692 19.7 79.8892 19.7H73.4692C73.1892 19.7 73.0492 19.82 73.0492 20.06V24.77C73.0492 25.03 73.1592 25.16 73.3792 25.16H83.6392C83.9992 25.16 84.1792 25.31 84.1792 25.61V28.46C84.1792 28.62 84.1292 28.75 84.0292 28.85C83.9492 28.95 83.7992 29 83.5792 29H68.4592C68.0192 29 67.7992 28.79 67.7992 28.37V7.31Z" fill="white"/>
<path d="M105.488 28.19C105.568 28.41 105.558 28.6 105.458 28.76C105.378 28.92 105.238 29 105.038 29H100.628C100.288 29 100.068 28.82 99.9681 28.46L96.7281 20.06C96.6081 19.78 96.3281 19.64 95.8881 19.64H93.0381C92.8981 19.64 92.7981 19.68 92.7381 19.76C92.6981 19.84 92.6781 19.91 92.6781 19.97V28.28C92.6781 28.76 92.4081 29 91.8681 29H88.0581C87.8181 29 87.6481 28.95 87.5481 28.85C87.4681 28.75 87.4281 28.6 87.4281 28.4V7.31C87.4281 6.93 87.5881 6.74 87.9081 6.74H97.2681C99.9481 6.74 102.028 7.27 103.508 8.33C105.008 9.39 105.758 10.9 105.758 12.86C105.758 13.88 105.568 14.79 105.188 15.59C104.808 16.39 104.308 17.06 103.688 17.6C103.068 18.12 102.388 18.51 101.648 18.77C101.468 18.83 101.428 18.98 101.528 19.22L105.488 28.19ZM96.7881 16.1C97.9281 16.1 98.7981 15.86 99.3981 15.38C100.018 14.88 100.328 14.16 100.328 13.22C100.328 12.24 100.018 11.5 99.3981 11C98.7781 10.5 97.9581 10.25 96.9381 10.25H93.2481C92.8681 10.25 92.6781 10.42 92.6781 10.76V15.59C92.6781 15.93 92.8181 16.1 93.0981 16.1H96.7881Z" fill="white"/>
<path d="M107.676 7.28C107.676 7.12 107.726 6.99 107.826 6.89C107.926 6.79 108.076 6.74 108.276 6.74H125.496C125.716 6.74 125.866 6.79 125.946 6.89C126.046 6.99 126.096 7.12 126.096 7.28V10.07C126.096 10.37 125.916 10.52 125.556 10.52H119.946C119.726 10.52 119.616 10.62 119.616 10.82V28.43C119.616 28.81 119.446 29 119.106 29H114.816C114.516 29 114.366 28.83 114.366 28.49V10.91C114.366 10.65 114.256 10.52 114.036 10.52H108.246C107.866 10.52 107.676 10.37 107.676 10.07V7.28Z" fill="white"/>
<path d="M129.205 7.31C129.205 6.93 129.365 6.74 129.685 6.74H144.805C145.105 6.74 145.255 6.91 145.255 7.25L145.225 9.95C145.225 10.37 145.015 10.58 144.595 10.58H135.025C134.645 10.58 134.455 10.74 134.455 11.06V15.41C134.455 15.75 134.605 15.92 134.905 15.92H141.265C141.605 15.92 141.775 16.08 141.775 16.4V19.28C141.775 19.4 141.735 19.5 141.655 19.58C141.595 19.66 141.475 19.7 141.295 19.7H134.875C134.595 19.7 134.455 19.82 134.455 20.06V24.77C134.455 25.03 134.565 25.16 134.785 25.16H145.045C145.405 25.16 145.585 25.31 145.585 25.61V28.46C145.585 28.62 145.535 28.75 145.435 28.85C145.355 28.95 145.205 29 144.985 29H129.865C129.425 29 129.205 28.79 129.205 28.37V7.31Z" fill="white"/>
<path d="M167.014 6.74C167.274 6.74 167.404 6.89 167.404 7.19V28.52C167.404 28.66 167.354 28.78 167.254 28.88C167.154 28.96 167.014 29 166.834 29H163.804C163.644 29 163.514 28.98 163.414 28.94C163.314 28.9 163.194 28.8 163.054 28.64L153.484 15.2C153.404 15.1 153.324 15.06 153.244 15.08C153.184 15.1 153.154 15.16 153.154 15.26V28.46C153.174 28.82 152.974 29 152.554 29H149.434C149.034 29 148.834 28.83 148.834 28.49V7.31C148.834 6.93 149.014 6.74 149.374 6.74H153.004C153.224 6.74 153.384 6.77 153.484 6.83C153.604 6.89 153.734 7.01 153.874 7.19L162.694 19.76C162.814 19.92 162.914 19.99 162.994 19.97C163.094 19.95 163.144 19.85 163.144 19.67V7.28C163.144 6.92 163.324 6.74 163.684 6.74H167.014Z" fill="white"/>
<path d="M26.6667 32.5C26.6667 33.2364 27.2636 33.8333 28 33.8333C28.7364 33.8333 29.3333 33.2364 29.3333 32.5C29.3333 31.7636 28.7364 31.1667 28 31.1667C27.2636 31.1667 26.6667 31.7636 26.6667 32.5ZM28 32.75H168V32.25H28V32.75Z" fill="#FCA311"/>
<path d="M28 32.5H168" stroke="#FCA311"/>
</svg>
