<svg width="40" height="40" viewBox="0 0 40 40" fill="none" xmlns="http://www.w3.org/2000/svg">
<g clip-path="url(#clip0_543_4)">
<path d="M18.5591 0.0474733C18.4079 0.0634108 17.9357 0.119348 17.5191 0.168411C15.8397 0.359973 13.9354 0.864348 12.2641 1.56841C6.21566 4.0956 1.66348 9.64029 0.407539 16C0.111914 17.5125 0.0400391 18.2556 0.0400391 20C0.0400391 22.2484 0.263477 23.8 0.855664 25.7606C2.7916 32.1762 7.8316 37.2081 14.2638 39.1515C16.1997 39.7362 17.7597 39.9597 19.9997 39.9597C22.2482 39.9597 23.7997 39.7362 25.7604 39.144C32.176 37.2081 37.2079 32.1681 39.1513 25.7359C39.736 23.8 39.9594 22.24 39.9594 20C39.9594 19.0478 39.9119 17.9603 39.8557 17.5597C39.2075 12.9359 37.3032 9.04778 34.1282 5.87154C30.9591 2.71966 27.0872 0.808098 22.5591 0.159973C21.9354 0.0718483 19.0472 -0.00877675 18.5591 0.0474733ZM12.0394 12.6475C12.4644 12.7756 12.6632 12.8956 12.9513 13.1834C13.5116 13.7522 13.6397 14.0637 13.6397 14.9193C13.6397 15.5603 13.6154 15.68 13.4238 16.0156C13.055 16.6393 12.1994 17.2156 11.6075 17.2312C11.191 17.24 11.2082 17.0556 11.6638 16.5759C12.2716 15.9437 12.3594 15.704 12.3594 14.7593C12.3519 13.8478 12.2397 13.5362 11.816 13.28C11.4635 13.064 11.08 13.08 10.5197 13.3434C9.06348 14.0403 7.48754 16.36 6.87223 18.7365C6.05566 21.9043 7.50348 24.4397 9.88754 24.0075C10.5832 23.8793 11.8954 23.2081 12.4644 22.6793C12.9357 22.2484 12.9357 22.24 12.9832 21.7043C13.0882 20.5834 13.8791 19.464 14.9363 18.944C15.4232 18.7034 15.5441 18.6803 16.1997 18.6803C16.8235 18.6803 16.9675 18.7122 17.2716 18.8793C18.2394 19.4325 18.0394 20.72 16.9919 20.72C16.3841 20.72 16.0716 20.4075 16.5122 20.2406C16.9444 20.0806 16.7832 19.48 16.2804 19.3443C15.6882 19.1918 15.0157 19.5922 14.5919 20.36C14.0794 21.2881 14.056 22.3925 14.5432 22.8956C15.0157 23.3997 15.6075 23.0006 16.0641 21.8553C16.3035 21.2718 16.6475 20.9593 17.0482 20.9593C17.3997 20.9593 17.4644 21.1756 17.3116 21.8322C17.0872 22.8478 17.2397 23.1115 17.8719 22.8003C18.0794 22.7037 18.4238 22.4806 18.6313 22.3206L19.0232 22.0081L19.2882 20.6237C19.5763 19.0722 19.6872 18.8634 20.2794 18.7525C20.8482 18.6475 20.9763 18.9281 20.7675 19.8156L20.655 20.3125L21.0716 19.8875C22.0554 18.8793 23.2638 18.3837 23.68 18.8C23.9035 19.0234 23.8791 19.304 23.5594 20.2953C23.4079 20.7678 23.1991 21.5125 23.1041 21.9359C22.96 22.5756 22.9513 22.7281 23.0322 22.8322C23.2885 23.1359 24.0719 22.8234 24.7679 22.1434L25.1757 21.7444L25.2244 20.8556C25.2719 19.8315 25.3672 19.464 25.6394 19.1356C25.8957 18.8318 26.3597 18.6084 26.6075 18.6718C26.8554 18.7365 26.8554 18.9759 26.6319 19.6803C26.3194 20.6481 26.3522 22.8797 26.6722 22.8797C26.8004 22.8797 27.4557 22.1922 27.8722 21.6162L28.1835 21.1912L27.9357 20.9362C27.5035 20.48 27.3997 20.1843 27.3997 19.4397C27.3997 18.8965 27.44 18.6962 27.5754 18.4312C27.8 18.0162 28.1516 17.7125 28.5679 17.5915C29.0072 17.4559 29.5516 17.6793 29.775 18.0797C29.9997 18.4875 29.9438 19.3993 29.6554 20.0243L29.4479 20.4797H29.7275C30.1119 20.4797 30.2635 20.3843 30.9519 19.7362C31.3119 19.3922 31.7282 19.0956 32.0394 18.9515C33.2638 18.3765 34.7044 18.6718 34.9435 19.5518C35.1435 20.2562 34.7044 20.7518 33.9354 20.6956C33.3835 20.6556 33.2797 20.5112 33.5997 20.2406C34.1757 19.7593 33.5997 19.1443 32.7757 19.3678C32.3275 19.4884 31.8235 19.9915 31.56 20.5762C31.0313 21.7444 31.3119 23.12 32.0713 23.12C32.3754 23.12 32.9122 22.5197 33.1197 21.9359C33.3675 21.2634 33.8875 20.84 34.2794 20.9922C34.4957 21.0718 34.5116 21.2878 34.376 21.9678C34.2235 22.7125 34.2 23.4084 34.3197 23.7281C34.3675 23.8475 34.5116 24.0722 34.6482 24.2237C34.9032 24.5115 34.9119 24.6156 34.6957 24.7522C34.5919 24.824 34.455 24.7925 34.1197 24.6084C33.6557 24.3678 33.2554 23.9356 33.1113 23.5278L33.0235 23.2884L32.7035 23.5278C32.5191 23.6559 32.2313 23.8 32.0638 23.8475C31.3997 24.0234 30.5832 23.5681 30.2 22.8003C30.0472 22.5034 29.9997 21.6322 30.1119 21.2962C30.1757 21.1119 30.1757 21.1119 29.9191 21.24C29.7838 21.3122 29.4957 21.3915 29.2722 21.4159C28.9035 21.4565 28.8472 21.4965 28.48 21.9603C27.96 22.6072 27.0394 23.4803 26.6635 23.6647C25.8641 24.0637 25.6004 23.9515 25.3916 23.1272L25.2475 22.5756L24.9032 22.8797C24.4638 23.264 23.5838 23.7281 23.0794 23.8403C22.5997 23.944 22.0872 23.7915 21.8794 23.4715C21.5685 22.9918 21.6722 21.9762 22.1675 20.6078C22.535 19.5922 22.2716 19.5765 21.3438 20.5443C20.6554 21.2718 20.3597 21.7918 20.1682 22.6C19.9682 23.44 19.7275 23.7437 19.1844 23.8718C18.856 23.944 18.7032 23.7437 18.7682 23.3043L18.8157 22.9515L18.5116 23.1603C18.0794 23.4559 17.535 23.7281 17.1591 23.8319C16.7832 23.9356 16.2875 23.8243 16.1679 23.6156C15.9519 23.2484 15.9519 23.2484 15.6163 23.5118C14.8875 24.104 13.8475 23.9356 13.32 23.1518L13.1513 22.904L12.6241 23.3922C11.1032 24.784 9.20004 25.4078 7.7916 24.9756C5.99941 24.4325 5.00816 22.8956 5.0241 20.68C5.0316 18.4559 6.01535 16.1122 7.67191 14.3762C8.60816 13.3997 9.48816 12.8234 10.3844 12.6075C11.0313 12.4475 11.4244 12.4556 12.0394 12.6475Z" fill="#FCA311"/>
<path d="M28.2552 18.336C28.0792 18.5117 28.1439 19.216 28.3677 19.6642C28.4799 19.896 28.5996 20.0804 28.6396 20.0804C28.6714 20.0804 28.7433 19.896 28.7996 19.6714C28.9996 18.8401 28.6396 17.9514 28.2552 18.336Z" fill="#FCA311"/>
</g>
<defs>
<clipPath id="clip0_543_4">
<rect width="40" height="40" fill="white"/>
</clipPath>
</defs>
</svg>
