<svg width="40" height="40" viewBox="0 0 40 40" fill="none" xmlns="http://www.w3.org/2000/svg">
<path d="M20.1731 39.5L6.12954 35.6014L3 0.5H37.3882L34.2554 35.5959L20.1731 39.5Z" fill="#E38D02"/>
<path d="M31.5735 33.3612L34.2508 3.37012H20.1943V36.5159L31.5735 33.3612Z" fill="#FCA311"/>
<path d="M10.1748 16.3887L10.5607 20.6937H20.1945V16.3887H10.1748Z" fill="#EBEBEB"/>
<path d="M9.39941 7.67529L9.79076 11.9804H20.1944V7.67529H9.39941Z" fill="#EBEBEB"/>
<path d="M20.1944 27.5693L20.1756 27.5743L15.381 26.2797L15.0745 22.8462H10.7529L11.3561 29.6057L20.1746 32.0538L20.1944 32.0483V27.5693Z" fill="#EBEBEB"/>
<path d="M30.1867 16.3888L30.9639 7.67529H20.1797V11.9804H26.2459L25.8542 16.3888H20.1797V20.6938H25.4809L24.9812 26.2771L20.1797 27.5731V32.052L29.0053 29.6059L29.07 28.8786L30.0817 17.5448L30.1867 16.3888Z" fill="white"/>
</svg>
