<svg width="40" height="40" viewBox="0 0 40 40" fill="none" xmlns="http://www.w3.org/2000/svg">
<path d="M13.6667 39.9998C17.3467 39.9998 20.3333 37.0132 20.3333 33.3332V26.6665H13.6667C9.98667 26.6665 7 29.6532 7 33.3332C7 37.0132 9.98667 39.9998 13.6667 39.9998Z" fill="#0ACF83"/>
<path d="M7 20.0002C7 16.3202 9.98667 13.3335 13.6667 13.3335H20.3333V26.6668H13.6667C9.98667 26.6668 7 23.6802 7 20.0002Z" fill="#A259FF"/>
<path d="M7 6.66667C7 2.98667 9.98667 0 13.6667 0H20.3333V13.3333H13.6667C9.98667 13.3333 7 10.3467 7 6.66667Z" fill="#F24E1E"/>
<path d="M20.333 0H26.9997C30.6797 0 33.6663 2.98667 33.6663 6.66667C33.6663 10.3467 30.6797 13.3333 26.9997 13.3333H20.333V0Z" fill="#FF7262"/>
<path d="M33.6663 20.0002C33.6663 23.6802 30.6797 26.6668 26.9997 26.6668C23.3197 26.6668 20.333 23.6802 20.333 20.0002C20.333 16.3202 23.3197 13.3335 26.9997 13.3335C30.6797 13.3335 33.6663 16.3202 33.6663 20.0002Z" fill="#1ABCFE"/>
</svg>
