<svg width="32" height="32" viewBox="0 0 32 32" fill="none" xmlns="http://www.w3.org/2000/svg">
<g clip-path="url(#clip0_524_221)">
<path d="M16.0001 0.375C7.16466 0.375 0 7.53834 0 16.3751C0 23.4444 4.58452 29.4419 10.9419 31.5576C11.7415 31.7057 12.0351 31.2105 12.0351 30.7879C12.0351 30.4064 12.0202 29.146 12.0133 27.809C7.56209 28.7769 6.62283 25.9212 6.62283 25.9212C5.89499 24.0718 4.8463 23.5801 4.8463 23.5801C3.39461 22.587 4.95573 22.6074 4.95573 22.6074C6.56242 22.7203 7.40842 24.2562 7.40842 24.2562C8.83547 26.7023 11.1514 25.9951 12.0645 25.5863C12.2081 24.5522 12.6227 23.8463 13.0803 23.4468C9.52648 23.0422 5.7906 21.6703 5.7906 15.5395C5.7906 13.7926 6.41563 12.3653 7.43916 11.2448C7.27303 10.8418 6.72537 9.21445 7.59415 7.01055C7.59415 7.01055 8.93774 6.58052 11.9953 8.65062C13.2716 8.29611 14.6404 8.11832 16.0001 8.11223C17.3599 8.11832 18.7297 8.29611 20.0084 8.65062C23.0623 6.58052 24.404 7.01055 24.404 7.01055C25.2749 9.21445 24.727 10.8418 24.5608 11.2448C25.5868 12.3653 26.2075 13.7926 26.2075 15.5395C26.2075 21.6848 22.4645 23.038 18.9017 23.4341C19.4756 23.9306 19.9869 24.9043 19.9869 26.3971C19.9869 28.5379 19.9684 30.2609 19.9684 30.7879C19.9684 31.2137 20.2564 31.7126 21.0674 31.5555C27.4213 29.4374 32 23.442 32 16.3751C32 7.53834 24.8364 0.375 16.0001 0.375ZM5.99257 23.1675C5.95733 23.247 5.83227 23.2709 5.71834 23.2163C5.60229 23.1641 5.53711 23.0557 5.57474 22.976C5.60918 22.8941 5.7345 22.8713 5.85029 22.9262C5.9666 22.9783 6.03284 23.0878 5.99257 23.1675ZM6.7796 23.8698C6.70329 23.9405 6.55412 23.9077 6.45291 23.7959C6.34825 23.6843 6.32864 23.5351 6.40601 23.4633C6.4847 23.3926 6.62937 23.4257 6.73429 23.5373C6.83895 23.6501 6.85935 23.7982 6.7796 23.8698ZM7.31953 24.7683C7.2215 24.8364 7.0612 24.7725 6.96211 24.6303C6.86407 24.488 6.86407 24.3173 6.96422 24.249C7.06358 24.1806 7.2215 24.2421 7.32191 24.3833C7.41968 24.528 7.41968 24.6986 7.31953 24.7683ZM8.23267 25.8089C8.14497 25.9056 7.95818 25.8796 7.82146 25.7477C7.68156 25.6187 7.64261 25.4356 7.73058 25.3389C7.81934 25.2419 8.00719 25.2692 8.14497 25.4001C8.28381 25.5288 8.3262 25.7132 8.23267 25.8089ZM9.41281 26.1602C9.37413 26.2855 9.19423 26.3425 9.013 26.2892C8.83203 26.2344 8.7136 26.0876 8.75016 25.9609C8.78778 25.8348 8.96848 25.7755 9.15104 25.8324C9.33174 25.887 9.45044 26.0327 9.41281 26.1602ZM10.7559 26.3092C10.7604 26.4412 10.6067 26.5506 10.4165 26.553C10.2252 26.5572 10.0704 26.4504 10.0683 26.3206C10.0683 26.1873 10.2185 26.079 10.4098 26.0758C10.6001 26.0721 10.7559 26.1781 10.7559 26.3092ZM12.0753 26.2586C12.0981 26.3874 11.9658 26.5196 11.7769 26.5548C11.5912 26.5888 11.4192 26.5093 11.3957 26.3816C11.3726 26.2496 11.5072 26.1174 11.6927 26.0832C11.8819 26.0504 12.0512 26.1277 12.0753 26.2586Z" fill="#FCA311"/>
</g>
<defs>
<clipPath id="clip0_524_221">
<rect width="32" height="32" fill="white"/>
</clipPath>
</defs>
</svg>
