<svg width="40" height="40" viewBox="0 0 40 40" fill="none" xmlns="http://www.w3.org/2000/svg">
<g clip-path="url(#clip0_543_32)">
<path d="M32.9205 36.0294L39.9471 18.4733C39.97 18.4191 39.9844 18.3632 39.9928 18.3065C39.9954 18.29 39.9958 18.2739 39.9975 18.2574C40.0005 18.2206 40.0009 18.1838 39.9983 18.1474C39.9971 18.1279 39.9954 18.1089 39.9924 18.0894C39.9865 18.0517 39.9772 18.0149 39.9657 17.9785C39.9606 17.9641 39.9577 17.9493 39.9526 17.9349C39.9327 17.885 39.9077 17.838 39.8772 17.7932C39.8755 17.7906 39.8747 17.7881 39.873 17.7855L27.5654 0.215416C27.5612 0.209914 27.5641 0.204412 27.5599 0.198487L27.5658 0.197217V0.487118C27.5658 0.487118 27.5518 0.487118 27.5502 0.487118C27.3795 0.0639052 27.0869 0.0114267 26.8082 0.0740623C26.8082 0.0757551 26.8065 0.0689838 26.8052 0.0689838C26.804 0.0706767 26.801 0.0639052 26.801 0.0639052H26.7993H26.798H26.7968H26.7951H26.7938C26.7938 0.0639052 26.7921 0.0639052 26.7908 0.0639052C26.7896 0.0639052 26.7896 0 26.7879 0L7.44775 5.23853C7.43716 5.2415 7.42827 5.23049 7.41768 5.23388C7.38084 5.24573 7.34484 5.25123 7.31054 5.269C7.28767 5.28043 7.26734 5.29144 7.24617 5.30498C7.22457 5.31894 7.2034 5.33079 7.18392 5.34688C7.16528 5.36211 7.14834 5.37777 7.1314 5.3947C7.11107 5.41501 7.09202 5.43617 7.07381 5.45903C7.0611 5.47553 7.04882 5.49119 7.03781 5.50854C7.01833 5.53817 7.00224 5.56991 6.98699 5.60292C6.98233 5.61265 6.97556 5.62069 6.97175 5.63085L0.00103773 23.1984C-0.00743215 23.22 0.0387287 23.2424 0.0387287 23.2645V23.2653C0.0387287 23.344 0.0387287 23.424 0.0387287 23.5031C0.0387287 23.5048 0.0387287 23.5048 0.0387287 23.5065C0.0387287 23.5065 0.0387287 23.5065 0.0387287 23.5074C0.0387287 23.5074 0.0387287 23.5074 0.0387287 23.5091V23.5108V23.5116C0.0387287 23.5429 0.0378817 23.5751 0.0438106 23.606C0.0450811 23.6077 0.0387287 23.6077 0.0387287 23.6085C0.0387287 23.6102 0.0387287 23.6102 0.0387287 23.6119C0.0387287 23.6119 0.0387287 23.6119 0.0387287 23.6128C0.0387287 23.6128 0.0387287 23.6128 0.0387287 23.6145V23.6161C0.0387287 23.6161 0.0387287 23.6161 0.0387287 23.617V23.6187C0.0387287 23.6995 0.0192479 23.7782 0.0641383 23.8493C0.0641383 23.8485 0.0514335 23.851 0.0514335 23.851C0.0514335 23.8527 0.0387287 23.8527 0.0387287 23.8527C0.0387287 23.8536 0.0387287 23.8536 0.0387287 23.8536L0.0196714 23.8553C0.0323762 23.8752 0.0349172 23.8934 0.048469 23.9115L12.3505 39.7224C12.3514 39.7241 12.3505 39.7249 12.3514 39.7266C12.3522 39.7275 12.3514 39.7283 12.3522 39.73C12.3548 39.7334 12.3582 39.7359 12.3611 39.7389C12.3713 39.7512 12.3831 39.7605 12.3942 39.7719C12.4056 39.7842 12.4166 39.796 12.4289 39.8066C12.4416 39.818 12.4522 39.8328 12.4653 39.8438C12.4763 39.8523 12.4894 39.8578 12.5009 39.8663C12.5178 39.8777 12.5352 39.8887 12.553 39.8984C12.5551 39.9001 12.5572 39.9018 12.5597 39.9027C12.5966 39.9242 12.6343 39.9408 12.6737 39.9547C12.6915 39.9606 12.7084 39.9678 12.7266 39.9729C12.7355 39.9755 12.744 39.9805 12.7529 39.9818C12.8049 39.9932 12.8583 40 12.9117 40C12.9536 40 12.9972 39.9949 13.0404 39.9886L32.381 36.4746C32.4051 36.4704 32.4267 36.4657 32.45 36.459C32.4559 36.4569 32.4623 36.4602 32.4678 36.4602C32.4695 36.4602 32.4695 36.4602 32.4695 36.4602C32.4784 36.4602 32.486 36.4488 32.4949 36.4454C32.5122 36.4395 32.5288 36.431 32.5457 36.4234C32.5546 36.4192 32.5643 36.4154 32.5728 36.4107C32.58 36.4065 32.5838 36.4044 32.5868 36.4035C32.5927 36.4001 32.5965 36.3946 32.6024 36.3917C32.6617 36.3587 32.7164 36.318 32.7634 36.2711C32.7693 36.2643 32.7735 36.2567 32.7795 36.2508C32.8256 36.2004 32.8646 36.1441 32.8942 36.0823C32.8968 36.0781 32.901 36.0747 32.9031 36.07C32.9048 36.0667 32.9065 36.0628 32.9078 36.059C32.9086 36.0573 32.909 36.0565 32.9099 36.0548C32.9133 36.0459 32.9167 36.0379 32.9205 36.0294ZM31.636 34.5393L19.4369 26.9181L33.161 16.2522L31.636 34.5393ZM18.595 25.7568L13.956 8.75755L32.5127 14.9399L18.595 25.7568ZM34.6246 15.9522L38.4047 18.4711L33.3643 31.0617L34.6246 15.9522ZM36.5134 15.4883L34.5662 14.1908L31.9706 9.00344L36.5134 15.4883ZM32.5952 13.4565L14.7793 7.52177L26.657 1.58705L32.5952 13.4565ZM12.857 6.8806L10.1107 5.96561L20.1818 3.22023L12.857 6.8806ZM8.05123 6.79088L11.7229 8.01439L3.15437 19.023L8.05123 6.79088ZM12.5962 9.22605L17.189 26.0517L1.88135 22.9928L12.5962 9.22605ZM17.1784 27.5122L12.7304 37.8835L2.35185 24.5489L17.1784 27.5122ZM18.5162 28.0341L30.3003 35.395L14.0962 38.3402L18.5162 28.0341Z" fill="#FCA311"/>
</g>
<defs>
<clipPath id="clip0_543_32">
<rect width="40" height="40" fill="white"/>
</clipPath>
</defs>
</svg>
