<svg width="40" height="40" viewBox="0 0 40 40" fill="none" xmlns="http://www.w3.org/2000/svg">
<path d="M37.3882 0.5L34.2554 35.5959L20.1731 39.5L6.12954 35.6014L3 0.5H37.3882Z" fill="#E38D02"/>
<path d="M20.1943 36.5159L31.5735 33.3612L34.2508 3.37012H20.1943V36.5159Z" fill="#FCA311"/>
<path d="M14.1043 11.9804H20.1944V7.67529H9.39941L9.50246 8.83028L10.5606 20.6938H20.1944V16.3888H14.4977L14.1043 11.9804Z" fill="#EBEBEB"/>
<path d="M15.0745 22.8462H10.7529L11.3561 29.6057L20.1746 32.0538L20.1944 32.0483V27.5693L20.1756 27.5743L15.381 26.2797L15.0745 22.8462Z" fill="#EBEBEB"/>
<path d="M20.1797 20.6937H25.4809L24.9812 26.277L20.1797 27.5729V32.0518L29.0053 29.6058L29.07 28.8785L30.0817 17.5447L30.1867 16.3887H20.1797V20.6937Z" fill="white"/>
<path d="M20.1797 11.9699V11.9804H30.5784L30.6648 11.0127L30.8609 8.83028L30.9639 7.67529H20.1797V11.9699Z" fill="white"/>
</svg>
