<svg width="58" height="58" viewBox="0 0 58 58" fill="none" xmlns="http://www.w3.org/2000/svg">
<path d="M54.2177 15.1552H47.1101V11.8228C47.1082 10.5443 46.5995 9.31866 45.6954 8.41462C44.7914 7.51057 43.5658 7.00186 42.2873 7H4.82279C3.54428 7.00186 2.31866 7.51057 1.41462 8.41462C0.51057 9.31866 0.00185966 10.5443 0 11.8228V39.4308C0.00185966 40.7093 0.51057 41.9349 1.41462 42.839C2.31866 43.743 3.54428 44.2517 4.82279 44.2536H17.5758L15.776 49.7302C15.7326 49.8623 15.7212 50.0028 15.7427 50.1402C15.7642 50.2776 15.818 50.4079 15.8997 50.5205C15.9813 50.633 16.0885 50.7246 16.2125 50.7876C16.3364 50.8507 16.4735 50.8834 16.6126 50.8831H30.4975C30.6365 50.8834 30.7736 50.8507 30.8976 50.7876C31.0215 50.7246 31.1287 50.633 31.2104 50.5205C31.2921 50.4079 31.3459 50.2776 31.3674 50.1402C31.3889 50.0028 31.3774 49.8623 31.3341 49.7302L29.5343 44.2536H34.4555V46.5173C34.4574 47.5199 34.8565 48.4809 35.5654 49.1898C36.2743 49.8987 37.2353 50.2978 38.2378 50.2996H54.2177C55.2203 50.2978 56.1812 49.8987 56.8901 49.1898C57.5991 48.4809 57.9981 47.5199 58 46.5173V18.9375C57.9981 17.9349 57.5991 16.9739 56.8901 16.265C56.1812 15.5561 55.2203 15.157 54.2177 15.1552ZM36.2201 23.1486H56.2424V42.2992H36.2201V23.1486ZM56.2424 18.9304V21.377H36.2201V18.9375C36.2201 18.4005 36.4334 17.8855 36.8131 17.5058C37.1929 17.126 37.7079 16.9127 38.2448 16.9127H54.2177C54.7547 16.9127 55.2697 17.126 55.6494 17.5058C56.0291 17.8855 56.2424 18.4005 56.2424 18.9375V18.9304ZM38.2448 15.1481C37.2423 15.15 36.2813 15.5491 35.5724 16.258C34.8635 16.9669 34.4644 17.9279 34.4625 18.9304V37.1319H1.75758V14.1217H45.3455V15.1552L38.2448 15.1481ZM4.82279 8.75055H42.2873C43.1002 8.75055 43.8799 9.07349 44.4547 9.64832C45.0295 10.2232 45.3525 11.0028 45.3525 11.8158V12.3571H1.76461V11.8158C1.76646 11.0052 2.08926 10.2285 2.66238 9.65535C3.2355 9.08223 4.01228 8.75943 4.82279 8.75758V8.75055ZM1.75758 39.4308V38.8895H34.4625V42.496H4.82279C4.00984 42.496 3.23019 42.1731 2.65536 41.5982C2.08052 41.0234 1.75758 40.2437 1.75758 39.4308ZM29.2812 49.1256H17.8288L19.4247 44.2536H27.6853L29.2812 49.1256ZM54.2177 48.5632H38.2448C37.9772 48.5632 37.7122 48.5101 37.4651 48.407C37.2181 48.304 36.9939 48.1529 36.8056 47.9627C36.6173 47.7724 36.4687 47.5467 36.3681 47.2986C36.2676 47.0505 36.2173 46.785 36.2201 46.5173V44.0848H56.2424V46.5173C56.2443 46.7844 56.1933 47.0492 56.0924 47.2965C55.9914 47.5438 55.8426 47.7686 55.6544 47.9581C55.4662 48.1476 55.2424 48.298 54.9958 48.4007C54.7492 48.5033 54.4848 48.5561 54.2177 48.5561V48.5632Z" fill="url(#paint0_linear_556_23)"/>
<path d="M43.0186 19.1556C43.0186 19.3887 43.1111 19.6122 43.2759 19.777C43.4407 19.9418 43.6643 20.0344 43.8973 20.0344H48.5584C48.7915 20.0344 49.015 19.9418 49.1798 19.777C49.3446 19.6122 49.4372 19.3887 49.4372 19.1556C49.4372 18.9226 49.3446 18.6991 49.1798 18.5342C49.015 18.3694 48.7915 18.2769 48.5584 18.2769H43.8973C43.6643 18.2769 43.4407 18.3694 43.2759 18.5342C43.1111 18.6991 43.0186 18.9226 43.0186 19.1556Z" fill="#FCA311"/>
<path d="M40.4388 19.943C40.8736 19.943 41.2262 19.5904 41.2262 19.1556C41.2262 18.7207 40.8736 18.3682 40.4388 18.3682C40.0039 18.3682 39.6514 18.7207 39.6514 19.1556C39.6514 19.5904 40.0039 19.943 40.4388 19.943Z" fill="#FCA311"/>
<path d="M46.2314 44.2749C45.8267 44.2749 45.4312 44.3949 45.0948 44.6197C44.7583 44.8445 44.4961 45.164 44.3413 45.5378C44.1864 45.9116 44.1459 46.323 44.2249 46.7198C44.3038 47.1167 44.4986 47.4812 44.7848 47.7673C45.0709 48.0534 45.4354 48.2483 45.8322 48.3272C46.2291 48.4062 46.6404 48.3657 47.0143 48.2108C47.3881 48.056 47.7076 47.7937 47.9324 47.4573C48.1572 47.1209 48.2772 46.7253 48.2772 46.3207C48.2753 45.7787 48.0592 45.2594 47.6759 44.8762C47.2927 44.4929 46.7734 44.2768 46.2314 44.2749ZM46.2314 46.616C46.1744 46.616 46.1186 46.5991 46.0712 46.5674C46.0238 46.5357 45.9869 46.4907 45.9651 46.4381C45.9432 46.3854 45.9375 46.3274 45.9487 46.2715C45.9598 46.2156 45.9872 46.1642 46.0275 46.1239C46.0679 46.0836 46.1192 46.0562 46.1751 46.0451C46.231 46.0339 46.289 46.0396 46.3417 46.0615C46.3943 46.0833 46.4394 46.1202 46.471 46.1676C46.5027 46.215 46.5196 46.2707 46.5196 46.3278C46.5178 46.403 46.4866 46.4745 46.4327 46.527C46.3789 46.5796 46.3066 46.609 46.2314 46.609V46.616Z" fill="#FCA311"/>
<path d="M28.6546 17.3403H6C4.89543 17.3403 4 18.2357 4 19.3403V30.0003C4 31.1049 4.89543 32.0003 6 32.0003H28.6546C29.7592 32.0003 30.6546 31.1049 30.6546 30.0003V19.3403C30.6546 18.2357 29.7592 17.3403 28.6546 17.3403Z" fill="url(#paint1_linear_556_23)"/>
<path d="M8.66406 22.1885H25.6564" stroke="#321F01" stroke-width="1.5" stroke-linecap="round"/>
<path d="M8.66406 26.7842H19.3259" stroke="#321F01" stroke-width="1.5" stroke-linecap="round"/>
<defs>
<linearGradient id="paint0_linear_556_23" x1="-26.4066" y1="17.9708" x2="13.6867" y2="84.3473" gradientUnits="userSpaceOnUse">
<stop stop-color="white"/>
<stop offset="1" stop-color="white" stop-opacity="0"/>
</linearGradient>
<linearGradient id="paint1_linear_556_23" x1="17.3273" y1="17.3403" x2="2.06457" y2="32.7516" gradientUnits="userSpaceOnUse">
<stop stop-color="#FCA311"/>
<stop offset="1" stop-color="#321F01" stop-opacity="0"/>
</linearGradient>
</defs>
</svg>
