<svg width="54" height="47" viewBox="0 0 54 47" fill="none" xmlns="http://www.w3.org/2000/svg">
<path d="M50.7523 14.6606C51.441 14.6606 52 14.1016 52 13.4128V3.74312C52 1.67879 50.3212 0 48.2569 0H4.74312C2.67879 0 1 1.67879 1 3.74312V42.8899C1 44.9542 2.67879 46.633 4.74312 46.633H48.2569C50.3212 46.633 52 44.9542 52 42.8899V18.1186C52 17.4298 51.441 16.8709 50.7523 16.8709C50.0636 16.8709 49.5046 17.4298 49.5046 18.1186V42.8899C49.5046 43.578 48.945 44.1376 48.2569 44.1376H16.9862V14.6606H50.7523ZM14.4908 44.1376H4.74312C4.05501 44.1376 3.49541 43.578 3.49541 42.8899V14.6606H14.4908V44.1376ZM3.49541 12.1651V3.74312C3.49541 3.05501 4.05501 2.49541 4.74312 2.49541H48.2569C48.945 2.49541 49.5046 3.05501 49.5046 3.74312V12.1651H3.49541ZM44.9043 5.40694C43.8724 5.40694 43.0327 6.24664 43.0327 7.2785C43.0327 8.31035 43.8724 9.15006 44.9043 9.15006C45.9361 9.15006 46.7759 8.31035 46.7759 7.2785C46.7759 6.24664 45.9361 5.40694 44.9043 5.40694ZM38.6658 5.40694C37.6339 5.40694 36.7942 6.24664 36.7942 7.2785C36.7942 8.31035 37.6339 9.15006 38.6658 9.15006C39.6976 9.15006 40.5373 8.31035 40.5373 7.2785C40.5373 6.24664 39.6976 5.40694 38.6658 5.40694ZM32.4272 5.40694C31.3954 5.40694 30.5557 6.24664 30.5557 7.2785C30.5557 8.31035 31.3954 9.15006 32.4272 9.15006C33.4591 9.15006 34.2988 8.31035 34.2988 7.2785C34.2988 6.24664 33.4591 5.40694 32.4272 5.40694Z" fill="url(#paint0_linear_531_247)"/>
<path d="M50.9997 22C52.3044 22.003 52.3096 23.9959 50.9996 24L40.9997 24C40.4469 24 39.9997 23.5527 39.9997 23V17C39.9997 16.4473 40.4469 16 40.9997 16H50.9997C52.3052 16.0061 52.3096 17.994 50.9996 18L41.9997 18V22H50.9997Z" fill="url(#paint1_linear_531_247)"/>
<path d="M36.8846 31.4727L34.7992 28.6388C34.7388 28.5566 34.7718 28.4245 34.8721 28.3515L40.9097 23.9085C41.9161 23.2023 42.1962 21.6871 41.4462 20.7093L41.4017 20.6482C40.6885 19.6769 39.3121 19.4543 38.2697 20.1461L31.8837 24.472L33.0146 22.6512C33.3442 21.981 33.4853 21.2434 33.4782 20.526C33.4706 19.8403 33.3022 19.1471 32.9925 18.5243C32.5591 17.543 31.0496 17.4226 30.4373 18.2504L26.1681 22.858C26.1387 22.89 26.112 22.9245 26.088 22.9616L22.9992 27.7804L21.5239 30.5278L19.3528 32.761C19.1002 33.0205 19.0728 33.4249 19.2872 33.7167L24.9314 41.3881C25.1411 41.6752 25.5392 41.7758 25.8638 41.6098L28.6888 40.1777L33.0434 38.6877C34.0745 38.3533 35.9986 35.7573 36.7609 35.0203C37.6047 33.98 37.6554 32.521 36.8846 31.4727ZM33.1348 36.8359C32.9468 37.0452 32.7105 37.2158 32.5074 37.3074L28.16 38.7926C28.1274 38.8038 28.0953 38.817 28.0642 38.8326L25.7535 40.0041L20.8533 33.3436C20.8834 33.2966 22.8567 31.3243 22.7804 31.3206L24.2759 28.5312L27.3001 23.8171L31.5621 19.2143C31.6035 19.1617 31.6485 19.177 31.6639 19.1824C32.0937 20.0428 32.1001 21.0288 31.7256 21.9174L29.2875 25.8423C29.0497 26.2228 29.109 26.707 29.432 27.0189C29.7549 27.3256 30.2409 27.3742 30.6147 27.1214L39.0948 21.3767C39.4723 21.1262 39.9612 21.1919 40.2065 21.5244L40.2505 21.5851C40.5152 21.9354 40.3883 22.4651 40.0312 22.7144L33.9935 27.1574C33.2342 27.7171 33.0594 28.7753 33.6051 29.5173L35.6905 32.3512C36.0618 32.8563 36.0286 33.5703 35.635 34.0582L33.1348 36.8359Z" fill="url(#paint2_linear_531_247)"/>
<defs>
<linearGradient id="paint0_linear_531_247" x1="-22.2196" y1="11.6583" x2="23.6263" y2="74.4626" gradientUnits="userSpaceOnUse">
<stop stop-color="white"/>
<stop offset="1" stop-color="white" stop-opacity="0"/>
</linearGradient>
<linearGradient id="paint1_linear_531_247" x1="44.5" y1="17" x2="52.8774" y2="27.0104" gradientUnits="userSpaceOnUse">
<stop stop-color="white"/>
<stop offset="1" stop-color="white" stop-opacity="0"/>
</linearGradient>
<linearGradient id="paint2_linear_531_247" x1="37.8406" y1="18.2392" x2="48.9954" y2="31.781" gradientUnits="userSpaceOnUse">
<stop stop-color="#FCA311"/>
<stop offset="1" stop-color="#321F01" stop-opacity="0"/>
</linearGradient>
</defs>
</svg>
