<svg width="40" height="40" viewBox="0 0 40 40" fill="none" xmlns="http://www.w3.org/2000/svg">
<path d="M14.5009 30.9341C14.5009 30.9341 12.9724 31.823 15.5888 32.1238C18.7585 32.4854 20.3785 32.4335 23.8715 31.7724C23.8715 31.7724 24.7898 32.3483 26.0724 32.847C18.2419 36.203 8.35054 32.6526 14.5009 30.9341Z" fill="#FCA311"/>
<path d="M13.5444 26.5547C13.5444 26.5547 11.83 27.8238 14.4483 28.0946C17.8343 28.4439 20.5083 28.4725 25.1353 27.5815C25.1353 27.5815 25.7753 28.2303 26.7816 28.5851C17.3141 31.3535 6.76905 28.8034 13.5444 26.5547Z" fill="#FCA311"/>
<path d="M21.6105 19.1261C23.5399 21.3475 21.1036 23.3464 21.1036 23.3464C21.1036 23.3464 26.0027 20.8173 23.7528 17.6503C21.6514 14.6969 20.0399 13.2295 28.7638 8.16992C28.7638 8.16992 15.0702 11.59 21.6105 19.1261Z" fill="#FCA311"/>
<path d="M31.9671 34.1733C31.9671 34.1733 33.0983 35.1053 30.7213 35.8264C26.2015 37.1956 11.9093 37.6091 7.93895 35.8809C6.51173 35.26 9.18818 34.3984 10.0301 34.2176C10.9081 34.0272 11.4099 34.0627 11.4099 34.0627C9.82266 32.9445 1.15073 36.2582 7.00497 37.2071C22.9703 39.7963 36.1083 36.0412 31.9671 34.1733Z" fill="#FCA311"/>
<path d="M15.2357 22.0173C15.2357 22.0173 7.9658 23.744 12.6613 24.371C14.6438 24.6365 18.596 24.5764 22.2774 24.268C25.286 24.0142 28.3071 23.4746 28.3071 23.4746C28.3071 23.4746 27.2462 23.9289 26.4787 24.453C19.0962 26.3946 4.83459 25.4913 8.94032 23.5053C12.4125 21.8269 15.2357 22.0173 15.2357 22.0173Z" fill="#FCA311"/>
<path d="M28.2778 29.307C35.7824 25.4073 32.3126 21.6597 29.8907 22.1646C29.297 22.2881 29.0324 22.3952 29.0324 22.3952C29.0324 22.3952 29.2527 22.05 29.6736 21.9005C34.4649 20.2161 38.1498 26.8687 28.127 29.5035C28.127 29.5035 28.2431 29.3998 28.2778 29.307Z" fill="#FCA311"/>
<path d="M23.7532 0C23.7532 0 27.9094 4.15759 19.8112 10.5508C13.3174 15.6792 18.3304 18.6033 19.8086 21.9442C16.018 18.5242 13.2362 15.5135 15.1024 12.7115C17.8416 8.59829 25.4301 6.60408 23.7532 0Z" fill="#FCA311"/>
<path d="M15.9735 39.8743C23.177 40.3354 34.2388 39.6185 34.5008 36.21C34.5008 36.21 33.9972 37.5021 28.5475 38.5283C22.3991 39.6853 14.816 39.5502 10.3184 38.8087C10.3184 38.8087 11.2391 39.5707 15.9735 39.8743Z" fill="#FCA311"/>
</svg>
