<svg width="32" height="32" viewBox="0 0 32 32" fill="none" xmlns="http://www.w3.org/2000/svg">
<path d="M9.46104 7C14.134 7 17.9218 10.8143 17.9218 15.5191C17.9218 20.2239 14.1337 24.0379 9.46104 24.0379C4.78841 24.0379 1 20.2239 1 15.5191C1 10.8143 4.78812 7 9.46104 7ZM22.9727 7.49903C25.3092 7.49903 27.2033 11.0894 27.2033 15.5191H27.2035C27.2035 19.9477 25.3095 23.5392 22.973 23.5392C20.6366 23.5392 18.7425 19.9477 18.7425 15.5191C18.7425 11.0905 20.6363 7.49903 22.9727 7.49903ZM29.5121 8.33438C30.3337 8.33438 31 11.551 31 15.5191C31 19.486 30.334 22.7038 29.5121 22.7038C28.6903 22.7038 28.0245 19.4869 28.0245 15.5191C28.0245 11.5513 28.6906 8.33438 29.5121 8.33438Z" fill="#FCA311"/>
</svg>
