<svg width="40" height="40" viewBox="0 0 40 40" fill="none" xmlns="http://www.w3.org/2000/svg">
<g clip-path="url(#clip0_543_46)">
<path d="M6.64062 0.75H33.3594C36.5949 0.75 39.25 3.44554 39.25 6.8109V33.1891C39.25 36.5545 36.5949 39.25 33.3594 39.25H6.64062C3.40511 39.25 0.75 36.5545 0.75 33.1891V6.8109C0.75 3.44554 3.40511 0.75 6.64062 0.75Z" stroke="#FCA311" stroke-width="1.5"/>
<path d="M9.00684 28.3523V11.2059C9.00684 11.0809 9.06055 11.018 9.16789 11.018L9.3377 11.0175L9.628 11.0143L10.0315 11.0064L11.3831 10.9778L12.8322 10.9509C13.3419 10.9421 13.8473 10.9375 14.3482 10.9375C15.7075 10.9375 16.8524 11.1074 17.7829 11.4473C18.6222 11.7313 19.3876 12.1988 20.0235 12.8158C20.5625 13.3507 20.979 13.9961 21.2444 14.7076C21.4954 15.4 21.6226 16.1312 21.6202 16.8677C21.6202 18.2991 21.2891 19.4797 20.6273 20.4097C19.9795 21.3175 19.0763 22.0111 18.0336 22.4028L17.9439 22.4356C16.8544 22.8421 15.6479 22.9889 14.3246 22.9983L14.119 22.9987L13.8139 22.9971L13.6598 22.995L13.4883 22.9909L13.385 22.9869L13.3221 22.9836L13.1676 22.9779L12.9787 22.9741L12.6942 22.972C12.6735 22.9719 12.6524 22.9719 12.6309 22.9719V28.3255C12.6404 28.392 12.618 28.4592 12.5705 28.5067C12.523 28.5542 12.4559 28.5765 12.3894 28.567H9.19466C9.06934 28.567 9.00684 28.4957 9.00684 28.3523ZM12.6309 14.238V19.8305C12.8632 19.8485 13.0778 19.8575 13.2749 19.8573H14.1604C14.7712 19.8553 15.3782 19.7644 15.9625 19.5875L16.079 19.551C16.6106 19.3931 17.0856 19.0858 17.4475 18.6655C17.7838 18.2689 17.958 17.7225 17.9701 17.0262L17.9708 16.9482C17.9849 16.4291 17.8498 15.9169 17.5816 15.4723C17.2996 15.0424 16.8921 14.7098 16.4144 14.5198C15.7906 14.2773 15.1244 14.1633 14.4555 14.1844L14.1152 14.1854L13.9006 14.1871L13.6957 14.1898L13.4066 14.1954L13.1958 14.2014L13.0861 14.2055L12.9397 14.2123L12.815 14.22L12.744 14.2256L12.6826 14.2316C12.6732 14.2326 12.6642 14.2337 12.6555 14.2348L12.6309 14.238ZM31.9951 18.8136C31.5268 18.573 31.0303 18.3924 30.5172 18.2759L30.3985 18.2501C29.8338 18.1206 29.2574 18.0492 28.6784 18.0372L28.5336 18.0354C28.194 18.0262 27.855 18.0669 27.5273 18.1562C27.3187 18.2027 27.1333 18.3215 27.004 18.4916C26.9166 18.6277 26.87 18.786 26.8699 18.9478C26.8748 19.1047 26.9314 19.2557 27.0309 19.3771C27.1734 19.5438 27.3446 19.6833 27.5363 19.7891L27.5944 19.8199C27.977 20.0259 28.3712 20.2096 28.775 20.37C29.6756 20.6714 30.5361 21.0814 31.3376 21.5909C31.8836 21.9355 32.3354 22.4103 32.6525 22.9728C32.9191 23.5054 33.0526 24.0947 33.0416 24.6901C33.0576 25.4765 32.8329 26.2489 32.3976 26.9039C31.9315 27.5688 31.2842 28.0857 30.5326 28.3931C29.7455 28.7388 28.779 28.9175 27.6331 28.9292L27.5139 28.9298C26.8034 28.937 26.0941 28.8748 25.3959 28.7442L25.2465 28.7151C24.6585 28.6073 24.0862 28.4271 23.5425 28.1785C23.4308 28.1208 23.3595 28.0076 23.3547 27.8832L23.3547 24.9585C23.3481 24.9006 23.3739 24.8439 23.4218 24.8109C23.469 24.7842 23.5278 24.7895 23.5694 24.8243C24.2114 25.2028 24.9085 25.479 25.6355 25.6427C26.2764 25.8033 26.9338 25.8889 27.5944 25.8976C28.2203 25.8976 28.681 25.8171 28.9763 25.6561C29.2487 25.5314 29.4222 25.2581 29.4191 24.9585C29.4191 24.7262 29.2849 24.5026 29.0166 24.2876C28.9041 24.1976 28.7428 24.0997 28.5327 23.994L28.4323 23.9446L28.325 23.8941C28.3065 23.8856 28.2878 23.877 28.2687 23.8684L28.151 23.8163C28.1308 23.8075 28.1103 23.7987 28.0895 23.7898L27.9614 23.736C27.9395 23.7269 27.9173 23.7178 27.8948 23.7086L27.7563 23.6531C27.7326 23.6438 27.7086 23.6344 27.6844 23.6249L27.5355 23.5677L27.3797 23.5094C26.5372 23.2162 25.7383 22.81 25.0049 22.302C24.4804 21.9372 24.0485 21.4547 23.7438 20.8932C23.4799 20.3644 23.3465 19.7802 23.3547 19.1893C23.3532 18.4793 23.5482 17.7828 23.9182 17.1768C24.34 16.5095 24.9457 15.9783 25.6624 15.6473C26.4494 15.254 27.4332 15.0572 28.6141 15.057C29.3056 15.0514 29.9965 15.1007 30.6802 15.2045C31.1754 15.2673 31.6594 15.3983 32.1187 15.5936C32.1925 15.6148 32.2521 15.6695 32.2797 15.7412C32.2978 15.8067 32.3068 15.8745 32.3065 15.9425V18.6526C32.3103 18.7168 32.2796 18.7781 32.226 18.8136C32.1533 18.8498 32.0678 18.8498 31.9951 18.8136Z" fill="#FCA311"/>
</g>
<defs>
<clipPath id="clip0_543_46">
<rect width="40" height="40" fill="white"/>
</clipPath>
</defs>
</svg>
