<svg width="40" height="40" viewBox="0 0 40 40" fill="none" xmlns="http://www.w3.org/2000/svg">
<path d="M31.25 14.4998L30.125 14.1248C30.125 13.8748 30.25 13.6248 30.25 13.3748C31.125 9.24973 30.5 5.87473 28.625 4.74973C26.75 3.74973 23.75 4.74973 20.75 7.37473C20.5 7.62473 20.125 7.87473 19.875 8.12473C19.625 7.99973 19.5 7.74973 19.25 7.62473C16.25 4.87473 13.125 3.74973 11.25 4.87473C9.375 5.87473 8.875 9.12473 9.625 12.9998C9.75 13.3748 9.75 13.7498 9.875 14.1248C9.375 14.2498 9 14.3748 8.625 14.4998C4.875 15.7498 2.5 17.8748 2.5 19.8748C2.5 21.9998 5 24.2498 8.875 25.4998C9.125 25.6248 9.5 25.7498 9.875 25.7498C9.75 26.1248 9.625 26.6248 9.625 26.9998C8.875 30.8748 9.5 33.8748 11.25 34.9998C13.125 36.1248 16.25 34.9998 19.375 32.2498C19.625 31.9998 19.875 31.7498 20.125 31.6248C20.375 31.8748 20.75 32.2498 21.125 32.4998C24.125 35.1248 27 36.1248 28.875 34.9998C30.75 33.8748 31.375 30.6248 30.625 26.6248C30.625 26.3748 30.5 25.9998 30.375 25.6248C30.625 25.4998 30.875 25.4998 31 25.3748C35 23.9998 37.625 21.8748 37.625 19.7498C37.5 17.8748 35 15.8748 31.25 14.4998ZM21.875 8.62473C24.5 6.37473 26.875 5.49973 28 6.12473C29.125 6.74973 29.625 9.49973 28.875 13.1248C28.875 13.3748 28.75 13.6248 28.75 13.8748C27.25 13.4998 25.625 13.2498 24.125 13.1248C23.25 11.8748 22.25 10.6248 21.125 9.37473L21.875 8.62473ZM12.875 21.7498C13.25 22.3748 13.5 22.9998 13.875 23.6248C14.25 24.2498 14.625 24.8748 15 25.3748C13.875 25.2498 12.875 25.1248 11.75 24.8748C12 23.8748 12.375 22.8748 12.875 21.7498ZM12.875 18.2498C12.375 17.2498 12.125 16.2498 11.75 15.2498C12.75 14.9998 13.875 14.8748 14.875 14.7498C14.5 15.3748 14.125 15.8748 13.75 16.4998C13.5 16.9998 13.125 17.6248 12.875 18.2498ZM13.625 19.9998C14.125 18.9998 14.625 18.1248 15.125 17.1248C15.625 16.2498 16.25 15.2498 16.875 14.3748C17.875 14.2498 19 14.2498 20.125 14.2498C21.25 14.2498 22.25 14.2498 23.375 14.3748C24 15.2498 24.5 16.1248 25 17.1248C25.5 17.9998 26 18.9998 26.5 19.9998C26 20.9998 25.5 21.8748 25 22.8748C24.5 23.7498 23.875 24.7498 23.375 25.6248C22.375 25.7498 21.25 25.7498 20.125 25.7498C19 25.7498 18 25.7498 17 25.6248C16.375 24.7498 15.875 23.8748 15.25 22.8748C14.625 21.8748 14.125 20.9998 13.625 19.9998ZM26.125 23.6248C26.5 22.9998 26.875 22.3748 27.125 21.7498C27.625 22.7498 28 23.7498 28.25 24.8748C27.125 25.1248 26.125 25.2498 25 25.3748C25.5 24.7498 25.875 24.1248 26.125 23.6248ZM27.125 18.2498C26.75 17.6248 26.5 16.9998 26.125 16.3748C25.75 15.7498 25.375 15.2498 25.125 14.6248C26.25 14.7498 27.25 14.9998 28.375 15.1248C28 16.2498 27.625 17.2498 27.125 18.2498ZM20 10.3748C20.75 11.1248 21.375 11.9998 22 12.8748C20.625 12.7498 19.25 12.7498 17.875 12.8748C18.625 11.9998 19.375 11.1248 20 10.3748ZM12 6.12473C13.125 5.49973 15.75 6.37473 18.5 8.87473L19 9.37473C17.875 10.4998 16.875 11.7498 16 13.1248C14.375 13.2498 12.875 13.4998 11.375 13.8748C11.25 13.4998 11.25 13.1248 11.125 12.7498C10.375 9.37473 10.875 6.74973 12 6.12473ZM10.25 24.4998C10 24.3748 9.625 24.3748 9.375 24.2498C7.625 23.6248 6.25 22.8748 5.25 22.1248C4.375 21.3748 4 20.6248 4 19.9998C4 18.7498 5.875 17.1248 9.125 15.9998C9.5 15.8748 9.875 15.7498 10.375 15.6248C10.75 17.1248 11.25 18.6248 12 19.9998C11.25 21.4998 10.75 22.9998 10.25 24.4998ZM18.375 31.3748C17 32.6248 15.625 33.3748 14.5 33.8748C13.375 34.2498 12.625 34.2498 12 33.9998C10.875 33.3748 10.375 30.8748 11 27.6248C11.125 27.1248 11.25 26.7498 11.25 26.2498C12.75 26.6248 14.375 26.8748 16 26.8748C16.875 28.1248 17.875 29.3748 19 30.6248C18.75 30.8748 18.625 31.1248 18.375 31.3748ZM20 29.6248C19.25 28.8748 18.625 27.9998 17.875 27.1248H22C21.5 27.9998 20.75 28.8748 20 29.6248ZM29.125 31.7498C28.875 32.8748 28.5 33.6248 28 33.8748C26.875 34.4998 24.5 33.6248 22 31.4998C21.75 31.2498 21.375 30.9998 21.125 30.7498C22.125 29.6248 23.125 28.3748 24 26.9998C25.625 26.8748 27.125 26.6248 28.75 26.2498C28.875 26.4998 28.875 26.8748 29 27.1248C29.375 28.8748 29.375 30.4998 29.125 31.7498ZM30.375 24.2498C30.125 24.2498 30 24.3748 29.75 24.3748C29.25 22.8748 28.625 21.3748 28 19.8748C28.625 18.4998 29.25 16.9998 29.75 15.4998C30.125 15.6248 30.5 15.7498 30.75 15.8748C34 16.9998 36 18.6248 36 19.8748C36 21.3748 33.875 23.1248 30.375 24.2498Z" fill="#FCA311"/>
<path d="M20 23.125C20.625 23.125 21.25 23 21.75 22.625C22.25 22.25 22.625 21.75 22.875 21.25C23.125 20.625 23.125 20 23 19.375C22.875 18.75 22.625 18.25 22.125 17.75C21.75 17.25 21.125 17 20.5 16.875C19.875 16.75 19.25 16.875 18.625 17C18 17.25 17.5 17.625 17.25 18.125C16.875 18.625 16.75 19.25 16.75 19.875C16.75 20.25 16.875 20.75 17 21.125C17.125 21.5 17.375 21.875 17.625 22.125C17.875 22.375 18.25 22.625 18.625 22.75C19.125 23 19.625 23.125 20 23.125Z" fill="#FCA311"/>
</svg>
