<svg width="40" height="40" viewBox="0 0 40 40" fill="none" xmlns="http://www.w3.org/2000/svg">
<g clip-path="url(#clip0_544_103)">
<path d="M30.75 11.1311L29.625 10.7561C29.625 10.5061 29.75 10.2561 29.75 10.0061C30.625 5.88108 30 2.50608 28.125 1.38108C26.25 0.381076 23.25 1.38108 20.25 4.00608C20 4.25608 19.625 4.50608 19.375 4.75608C19.125 4.63108 19 4.38108 18.75 4.25608C15.75 1.50608 12.625 0.381076 10.75 1.50608C8.875 2.50608 8.375 5.75608 9.125 9.63111C9.25 10.0061 9.25 10.3811 9.375 10.7561C8.875 10.8811 8.5 11.0061 8.125 11.1311C4.375 12.3811 2 14.5061 2 16.5061C2 18.6311 4.5 20.8811 8.375 22.1311C8.625 22.2561 9 22.3811 9.375 22.3811C9.25 22.7561 9.125 23.2561 9.125 23.6311C8.375 27.5061 9 30.5061 10.75 31.6311C12.625 32.7561 15.75 31.6311 18.875 28.8811C19.125 28.6311 19.375 28.3811 19.625 28.2561C19.875 28.5061 20.25 28.8811 20.625 29.1311C23.625 31.7561 26.5 32.7561 28.375 31.6311C30.25 30.5061 30.875 27.2561 30.125 23.2561C30.125 23.0061 30 22.6311 29.875 22.2561C30.125 22.1311 30.375 22.1311 30.5 22.0061C34.5 20.6311 37.125 18.5061 37.125 16.3811C37 14.5061 34.5 12.5061 30.75 11.1311ZM21.375 5.25608C24 3.00608 26.375 2.13108 27.5 2.75608C28.625 3.38108 29.125 6.13108 28.375 9.75611C28.375 10.0061 28.25 10.2561 28.25 10.5061C26.75 10.1311 25.125 9.88111 23.625 9.75611C22.75 8.50611 21.75 7.25611 20.625 6.00608L21.375 5.25608ZM12.375 18.3811C12.75 19.0061 13 19.6311 13.375 20.2561C13.75 20.8811 14.125 21.5061 14.5 22.0061C13.375 21.8811 12.375 21.7561 11.25 21.5061C11.5 20.5061 11.875 19.5061 12.375 18.3811ZM12.375 14.8811C11.875 13.8811 11.625 12.8811 11.25 11.8811C12.25 11.6311 13.375 11.5061 14.375 11.3811C14 12.0061 13.625 12.5061 13.25 13.1311C13 13.6311 12.625 14.2561 12.375 14.8811ZM13.125 16.6311C13.625 15.6311 14.125 14.7561 14.625 13.7561C15.125 12.8811 15.75 11.8811 16.375 11.0061C17.375 10.8811 18.5 10.8811 19.625 10.8811C20.75 10.8811 21.75 10.8811 22.875 11.0061C23.5 11.8811 24 12.7561 24.5 13.7561C25 14.6311 25.5 15.6311 26 16.6311C25.5 17.6311 25 18.5061 24.5 19.5061C24 20.3811 23.375 21.3811 22.875 22.2561C21.875 22.3811 20.75 22.3811 19.625 22.3811C18.5 22.3811 17.5 22.3811 16.5 22.2561C15.875 21.3811 15.375 20.5061 14.75 19.5061C14.125 18.5061 13.625 17.6311 13.125 16.6311ZM25.625 20.2561C26 19.6311 26.375 19.0061 26.625 18.3811C27.125 19.3811 27.5 20.3811 27.75 21.5061C26.625 21.7561 25.625 21.8811 24.5 22.0061C25 21.3811 25.375 20.7561 25.625 20.2561ZM26.625 14.8811C26.25 14.2561 26 13.6311 25.625 13.0061C25.25 12.3811 24.875 11.8811 24.625 11.2561C25.75 11.3811 26.75 11.6311 27.875 11.7561C27.5 12.8811 27.125 13.8811 26.625 14.8811ZM19.5 7.00611C20.25 7.75611 20.875 8.63111 21.5 9.50611C20.125 9.38111 18.75 9.38111 17.375 9.50611C18.125 8.63111 18.875 7.75611 19.5 7.00611ZM11.5 2.75608C12.625 2.13108 15.25 3.00608 18 5.50608L18.5 6.00608C17.375 7.13111 16.375 8.38111 15.5 9.75611C13.875 9.88111 12.375 10.1311 10.875 10.5061C10.75 10.1311 10.75 9.75611 10.625 9.38111C9.875 6.00608 10.375 3.38108 11.5 2.75608ZM9.75 21.1311C9.5 21.0061 9.125 21.0061 8.875 20.8811C7.125 20.2561 5.75 19.5061 4.75 18.7561C3.875 18.0061 3.5 17.2561 3.5 16.6311C3.5 15.3811 5.375 13.7561 8.625 12.6311C9 12.5061 9.375 12.3811 9.875 12.2561C10.25 13.7561 10.75 15.2561 11.5 16.6311C10.75 18.1311 10.25 19.6311 9.75 21.1311ZM17.875 28.0061C16.5 29.2561 15.125 30.0061 14 30.5061C12.875 30.8811 12.125 30.8811 11.5 30.6311C10.375 30.0061 9.875 27.5061 10.5 24.2561C10.625 23.7561 10.75 23.3811 10.75 22.8811C12.25 23.2561 13.875 23.5061 15.5 23.5061C16.375 24.7561 17.375 26.0061 18.5 27.2561C18.25 27.5061 18.125 27.7561 17.875 28.0061ZM19.5 26.2561C18.75 25.5061 18.125 24.6311 17.375 23.7561H21.5C21 24.6311 20.25 25.5061 19.5 26.2561ZM28.625 28.3811C28.375 29.5061 28 30.2561 27.5 30.5061C26.375 31.1311 24 30.2561 21.5 28.1311C21.25 27.8811 20.875 27.6311 20.625 27.3811C21.625 26.2561 22.625 25.0061 23.5 23.6311C25.125 23.5061 26.625 23.2561 28.25 22.8811C28.375 23.1311 28.375 23.5061 28.5 23.7561C28.875 25.5061 28.875 27.1311 28.625 28.3811ZM29.875 20.8811C29.625 20.8811 29.5 21.0061 29.25 21.0061C28.75 19.5061 28.125 18.0061 27.5 16.5061C28.125 15.1311 28.75 13.6311 29.25 12.1311C29.625 12.2561 30 12.3811 30.25 12.5061C33.5 13.6311 35.5 15.2561 35.5 16.5061C35.5 18.0061 33.375 19.7561 29.875 20.8811Z" fill="#FCA311"/>
<path d="M19.5 19.7564C20.125 19.7564 20.75 19.6314 21.25 19.2564C21.75 18.8814 22.125 18.3814 22.375 17.8814C22.625 17.2564 22.625 16.6314 22.5 16.0064C22.375 15.3814 22.125 14.8814 21.625 14.3814C21.25 13.8814 20.625 13.6314 20 13.5064C19.375 13.3814 18.75 13.5064 18.125 13.6314C17.5 13.8814 17 14.2564 16.75 14.7564C16.375 15.2564 16.25 15.8814 16.25 16.5064C16.25 16.8814 16.375 17.3814 16.5 17.7564C16.625 18.1314 16.875 18.5064 17.125 18.7564C17.375 19.0064 17.75 19.2564 18.125 19.3814C18.625 19.6314 19.125 19.7564 19.5 19.7564Z" fill="#FCA311"/>
<path d="M10.8095 38.0874V33.8874H11.5115L13.7015 37.1934V33.8874H14.3105V38.0874H13.6085L11.4185 34.7814V38.0874H10.8095ZM16.1486 38.1474C15.8326 38.1474 15.5866 38.0664 15.4106 37.9044C15.2366 37.7404 15.1496 37.5254 15.1496 37.2594C15.1496 36.9954 15.2476 36.7744 15.4436 36.5964C15.6416 36.4184 15.9566 36.3294 16.3886 36.3294H17.2046V36.3204C17.2046 35.8164 16.9726 35.5644 16.5086 35.5644C16.3146 35.5644 16.1506 35.5994 16.0166 35.6694C15.8846 35.7394 15.7776 35.8374 15.6956 35.9634L15.2846 35.6304C15.4126 35.4324 15.5806 35.2804 15.7886 35.1744C15.9986 35.0684 16.2366 35.0154 16.5026 35.0154H16.5686C16.9366 35.0154 17.2326 35.1214 17.4566 35.3334C17.6806 35.5454 17.7926 35.8624 17.7926 36.2844V38.0874H17.2166V37.5984C17.1006 37.7744 16.9516 37.9104 16.7696 38.0064C16.5876 38.1004 16.3806 38.1474 16.1486 38.1474ZM16.2806 37.6134C16.5126 37.6134 16.7056 37.5614 16.8596 37.4574C17.0136 37.3514 17.1286 37.2084 17.2046 37.0284V36.8004H16.4126C16.1766 36.8004 16.0076 36.8384 15.9056 36.9144C15.8056 36.9884 15.7556 37.0894 15.7556 37.2174C15.7556 37.4814 15.9306 37.6134 16.2806 37.6134ZM19.9756 38.1264C19.6196 38.1264 19.3486 38.0364 19.1626 37.8564C18.9766 37.6764 18.8836 37.3994 18.8836 37.0254V35.6094H18.2956V35.0874H18.8836V34.1934H19.4836V35.0874H20.4946V35.6094H19.4836V36.9444C19.4836 37.1804 19.5326 37.3444 19.6306 37.4364C19.7286 37.5284 19.8736 37.5744 20.0656 37.5744C20.1576 37.5744 20.2396 37.5704 20.3116 37.5624C20.3856 37.5544 20.4616 37.5444 20.5396 37.5324V38.0574C20.4596 38.0774 20.3696 38.0934 20.2696 38.1054C20.1696 38.1194 20.0716 38.1264 19.9756 38.1264ZM21.4568 34.5534C21.3348 34.5534 21.2378 34.5164 21.1658 34.4424C21.0958 34.3664 21.0608 34.2704 21.0608 34.1544C21.0608 34.0364 21.0958 33.9404 21.1658 33.8664C21.2378 33.7924 21.3348 33.7554 21.4568 33.7554C21.5808 33.7554 21.6778 33.7924 21.7478 33.8664C21.8178 33.9404 21.8528 34.0364 21.8528 34.1544C21.8528 34.2704 21.8178 34.3664 21.7478 34.4424C21.6778 34.5164 21.5808 34.5534 21.4568 34.5534ZM21.1568 38.0874V35.0874H21.7568V38.0874H21.1568ZM23.5062 38.0874C23.2902 37.6014 23.0842 37.1064 22.8882 36.6024C22.6942 36.0964 22.5142 35.5914 22.3482 35.0874H23.0262C23.1482 35.5014 23.2812 35.9164 23.4252 36.3324C23.5712 36.7484 23.7252 37.1604 23.8872 37.5684C24.0492 37.1604 24.2022 36.7484 24.3462 36.3324C24.4922 35.9164 24.6262 35.5014 24.7482 35.0874H25.4022C25.2362 35.5914 25.0552 36.0964 24.8592 36.6024C24.6652 37.1064 24.4602 37.6014 24.2442 38.0874H23.5062ZM27.1195 38.1594C26.8315 38.1594 26.5785 38.0934 26.3605 37.9614C26.1445 37.8294 25.9755 37.6454 25.8535 37.4094C25.7335 37.1734 25.6735 36.9004 25.6735 36.5904C25.6735 36.2804 25.7335 36.0074 25.8535 35.7714C25.9755 35.5334 26.1445 35.3484 26.3605 35.2164C26.5785 35.0824 26.8315 35.0154 27.1195 35.0154H27.1855C27.4475 35.0154 27.6775 35.0804 27.8755 35.2104C28.0755 35.3384 28.2315 35.5244 28.3435 35.7684C28.4555 36.0104 28.5115 36.3024 28.5115 36.6444V36.8274H26.2945C26.3305 37.0734 26.4225 37.2674 26.5705 37.4094C26.7205 37.5494 26.9155 37.6194 27.1555 37.6194H27.2155C27.3595 37.6194 27.4975 37.5904 27.6295 37.5324C27.7615 37.4724 27.8725 37.3924 27.9625 37.2924L28.3315 37.6824C28.1955 37.8284 28.0275 37.9444 27.8275 38.0304C27.6295 38.1164 27.4155 38.1594 27.1855 38.1594H27.1195ZM27.1015 35.5554C26.8875 35.5554 26.7085 35.6264 26.5645 35.7684C26.4225 35.9084 26.3325 36.1004 26.2945 36.3444H27.9085C27.8905 36.1224 27.8175 35.9354 27.6895 35.7834C27.5635 35.6314 27.3875 35.5554 27.1615 35.5554H27.1015Z" fill="#FCA311"/>
</g>
<defs>
<clipPath id="clip0_544_103">
<rect width="40" height="40" fill="white"/>
</clipPath>
</defs>
</svg>
