<svg width="82" height="73" viewBox="0 0 82 73" fill="none" xmlns="http://www.w3.org/2000/svg">
<path d="M27.6128 12.27C29.5425 12.27 31.231 12.5205 32.6782 13.0215C34.144 13.5225 35.3687 14.2183 36.3521 15.1089C37.3354 15.981 38.0684 17.0107 38.5508 18.1982C39.0518 19.3672 39.3022 20.6196 39.3022 21.9556C39.3022 23.4214 39.0518 24.8315 38.5508 26.186C38.0684 27.522 37.3911 28.793 36.519 29.999C35.6655 31.2051 34.6543 32.3369 33.4854 33.3945C32.3164 34.4521 31.064 35.417 29.728 36.2891C28.3921 37.1611 27.0005 37.9404 25.5532 38.627C24.1245 39.3135 22.7051 39.8887 21.2949 40.3525C22.2969 41.2432 23.2061 42.2822 24.0225 43.4697C24.8389 44.6387 25.6182 45.8911 26.3604 47.2271C27.1025 48.5444 27.8354 49.8989 28.5591 51.2905C29.2827 52.6821 30.0435 54.0366 30.8413 55.354C31.6392 56.6528 32.502 57.8867 33.4297 59.0557C34.376 60.2246 35.4429 61.2451 36.6304 62.1172C37.8364 63.0078 39.1816 63.7036 40.666 64.2046C42.1504 64.7241 43.8481 64.9839 45.7593 64.9839L45.8706 66.125C45.6294 66.1807 45.3511 66.2271 45.0356 66.2642C44.7759 66.3013 44.4512 66.3291 44.0615 66.3477C43.6719 66.3848 43.2266 66.4033 42.7256 66.4033C40.3135 66.4033 38.2075 66.125 36.4077 65.5684C34.6079 65.0303 33.04 64.2881 31.7041 63.3418C30.3867 62.4141 29.2642 61.3286 28.3364 60.0854C27.4087 58.8608 26.5923 57.562 25.8872 56.189C25.2007 54.7974 24.5977 53.3872 24.0781 51.9585C23.5586 50.5112 23.0391 49.1196 22.5195 47.7837C22.0186 46.4292 21.4805 45.1768 20.9053 44.0264C20.3486 42.8574 19.6807 41.8647 18.9014 41.0483C18.5303 41.1411 18.1592 41.2153 17.7881 41.271C17.4355 41.3267 17.083 41.3823 16.7305 41.438C16.7119 42.7739 16.6841 43.9336 16.647 44.917C16.6284 45.8818 16.6006 46.7354 16.5635 47.4775C16.5264 48.2012 16.48 48.8413 16.4243 49.3979C16.3687 49.9546 16.3037 50.4927 16.2295 51.0122C16.0254 52.4595 15.7285 53.6934 15.3389 54.7139C14.9492 55.7158 14.4761 56.5415 13.9194 57.1909C13.3628 57.8218 12.7227 58.2856 11.999 58.5825C11.2939 58.8608 10.5146 59 9.66113 59C8.45508 59 7.32324 58.6475 6.26562 57.9424C5.22656 57.2373 4.32666 56.189 3.56592 54.7974C2.80518 53.4058 2.20215 51.6802 1.75684 49.6206C1.33008 47.561 1.1167 45.1768 1.1167 42.4678C1.1167 39.6289 1.42285 36.9106 2.03516 34.313C2.64746 31.6968 3.51025 29.2754 4.62354 27.0488C5.75537 24.8037 7.11914 22.772 8.71484 20.9536C10.3105 19.1353 12.0825 17.5859 14.0308 16.3057C15.9976 15.0068 18.1221 14.0142 20.4043 13.3276C22.7051 12.6226 25.1079 12.27 27.6128 12.27ZM10.5239 39.3228C10.5239 38.8403 10.7095 38.4321 11.0806 38.0981C11.4702 37.7456 11.9897 37.5137 12.6392 37.4023C12.6021 35.584 12.5557 33.9233 12.5 32.4204C12.4443 30.9175 12.3979 29.6187 12.3608 28.5239C12.3052 27.2437 12.2588 26.0933 12.2217 25.0728C12.3516 24.9614 12.5 24.8687 12.667 24.7944C12.8154 24.7202 12.9917 24.6553 13.1958 24.5996C13.3999 24.5439 13.6504 24.5161 13.9473 24.5161C14.8008 24.5161 15.4873 24.6738 16.0068 24.9893C16.5264 25.2861 16.7861 25.7964 16.7861 26.52C16.7861 28.7095 16.7861 30.7412 16.7861 32.6152C16.7861 34.4707 16.7676 36.2148 16.7305 37.8477C17.3242 38.0146 17.8901 38.228 18.4282 38.4878C18.9849 38.729 19.5044 39.0073 19.9868 39.3228C21.6938 38.8589 23.4102 38.1909 25.1357 37.3188C26.8613 36.4468 28.4106 35.3428 29.7837 34.0068C31.1753 32.6523 32.2979 31.0566 33.1514 29.2197C34.0234 27.3643 34.4595 25.2305 34.4595 22.8184C34.4595 21.2412 34.2368 19.896 33.7915 18.7827C33.3647 17.6694 32.7803 16.7603 32.0381 16.0552C31.2959 15.3315 30.4146 14.8027 29.394 14.4688C28.3921 14.1348 27.3252 13.9678 26.1934 13.9678C24.3008 13.9678 22.436 14.2461 20.5991 14.8027C18.7808 15.3408 17.0552 16.1665 15.4224 17.2798C13.8081 18.3931 12.3145 19.8032 10.9414 21.5103C9.58691 23.2173 8.40869 25.2305 7.40674 27.5498C6.42334 29.8691 5.65332 32.5039 5.09668 35.4541C4.54004 38.4043 4.26172 41.6885 4.26172 45.3066C4.26172 46.8838 4.33594 48.4146 4.48438 49.8989C4.65137 51.3647 4.92041 52.6729 5.2915 53.8232C5.6626 54.9551 6.1543 55.8643 6.7666 56.5508C7.39746 57.2373 8.17676 57.5806 9.10449 57.5806C9.60547 57.5806 10.0786 57.4785 10.5239 57.2744C10.9692 57.0703 11.3589 56.6528 11.6929 56.022C12.0269 55.3726 12.2959 54.4541 12.5 53.2666C12.7041 52.0605 12.8062 50.4556 12.8062 48.4517C12.8062 47.728 12.8062 47.0879 12.8062 46.5312C12.8062 45.9561 12.8062 45.4087 12.8062 44.8892C12.8062 44.3511 12.7969 43.813 12.7783 43.2749C12.7783 42.7368 12.769 42.1431 12.7505 41.4937C12.0454 41.3267 11.498 41.0576 11.1084 40.6865C10.7188 40.3154 10.5239 39.8608 10.5239 39.3228ZM11.9434 39.3228C11.9434 39.5083 11.9712 39.666 12.0269 39.7959C12.1011 39.9258 12.3237 40.0371 12.6948 40.1299V38.8218C12.1938 38.9331 11.9434 39.1001 11.9434 39.3228ZM16.7305 40.0186C16.8789 40.0186 17.0181 40.0093 17.1479 39.9907C17.2964 39.9722 17.4448 39.9443 17.5933 39.9072C17.4448 39.8145 17.2964 39.731 17.1479 39.6567C17.0181 39.5825 16.8789 39.5176 16.7305 39.4619V40.0186Z" fill="white"/>
<path d="M78.3528 57.632C78.5428 57.974 78.5998 58.297 78.5238 58.601C78.4478 58.867 78.1818 59 77.7258 59H69.1758C68.3398 59 67.7888 58.696 67.5228 58.088L58.3458 40.19C58.0798 39.772 57.7188 39.848 57.2628 40.418L52.1898 46.46C51.9618 46.764 51.8478 47.163 51.8478 47.657V57.689C51.8478 58.563 51.3348 59 50.3088 59H43.1268C42.6328 59 42.2908 58.905 42.1008 58.715C41.9488 58.525 41.8728 58.24 41.8728 57.86V17.789C41.8728 17.067 42.1768 16.706 42.7848 16.706H50.9928C51.5628 16.706 51.8478 17.029 51.8478 17.675V34.718C51.8478 35.06 51.9048 35.25 52.0188 35.288C52.1708 35.288 52.3418 35.174 52.5318 34.946L66.3258 17.618C66.5538 17.314 66.8008 17.086 67.0668 16.934C67.3328 16.782 67.7128 16.706 68.2068 16.706H75.0468C75.5408 16.706 75.8828 16.839 76.0728 17.105C76.3008 17.371 76.2628 17.675 75.9588 18.017L65.0148 30.842C64.7108 31.222 64.6728 31.678 64.9008 32.21L78.3528 57.632Z" fill="white"/>
<path d="M46 65.5H81" stroke="#FCA311" stroke-width="3"/>
<path d="M42 65.5C42 67.7091 43.7909 69.5 46 69.5C48.2091 69.5 50 67.7091 50 65.5C50 63.2909 48.2091 61.5 46 61.5C43.7909 61.5 42 63.2909 42 65.5ZM46 66.25H81V64.75H46V66.25Z" fill="#FCA311"/>
</svg>
