<svg width="50" height="40" viewBox="0 0 50 40" fill="none" xmlns="http://www.w3.org/2000/svg">
<mask id="mask0_524_95" style="mask-type:luminance" maskUnits="userSpaceOnUse" x="0" y="1" width="50" height="38">
<path d="M50 1.25H0V38.75H50V1.25Z" fill="white"/>
</mask>
<g mask="url(#mask0_524_95)">
<path d="M43.0205 22.8061L43.2268 22.803C44.5299 22.803 45.7628 23.1061 46.8566 23.6468L46.8081 23.6249C47.7812 24.0949 48.6121 24.8146 49.2159 25.7107L49.2299 25.7326C49.7556 26.5039 50.0156 27.4254 49.9706 28.3576V28.3483C49.9486 28.779 49.8407 29.201 49.6534 29.5895C49.4662 29.978 49.2032 30.3252 48.8799 30.6107L48.8768 30.6139C48.5281 30.9565 48.1098 31.2202 47.6503 31.3874L47.6268 31.3951C47.3664 31.4473 47.2232 31.4081 47.1972 31.278C47.1712 31.1477 47.2883 31.0045 47.5487 30.8483C48.2549 30.4201 48.7659 29.7295 48.9518 28.9155L48.9566 28.8951C48.9971 28.3525 48.8889 27.8091 48.6441 27.3233L48.6518 27.3405C48.3239 26.6496 47.8168 26.0592 47.1831 25.6311L47.1674 25.6218C46.1883 24.9969 45.0707 24.6219 43.9128 24.5295L43.8878 24.528C42.2296 24.292 40.5384 24.4885 38.9784 25.0982L39.0441 25.0749C39.2706 25.6045 39.4128 26.2186 39.433 26.8624V26.8701C39.4218 27.4974 39.2517 28.1115 38.9389 28.6551C38.626 29.1989 38.1805 29.6545 37.644 29.9795L37.6268 29.9889C37.1424 30.3326 36.5893 30.6343 36.0003 30.8686L35.9456 30.8874C35.5183 31.0931 35.0457 31.1868 34.5722 31.1593H34.5799C33.5914 30.9519 33.3571 30.0925 33.8768 28.5811C34.1034 27.9233 34.4206 27.353 34.8222 26.8514L34.8128 26.8624C35.3268 26.1905 35.8909 25.6014 36.5143 25.0795L36.5316 25.0655L36.3784 24.8374C36.0749 24.313 35.8208 23.7618 35.6191 23.1905L35.5972 23.1186C35.4409 22.5977 35.3107 22.1035 35.2066 21.6357L35.1284 21.0889L34.3472 22.5717C33.6701 23.8217 33.0191 24.915 32.3941 25.8514L32.1597 26.242C32.4222 26.8795 32.6159 27.6186 32.7034 28.3905L32.7066 28.4295C32.7498 29.032 32.6371 29.6355 32.3793 30.1817C32.1214 30.728 31.7273 31.1986 31.2347 31.5482L31.2237 31.5561C30.7501 31.8452 30.2595 32.1061 29.7549 32.3374L29.6612 32.3764C29.0713 32.6288 28.4412 32.7742 27.8003 32.8061H27.7862C27.3507 32.8364 26.9147 32.7534 26.5205 32.5655L26.5362 32.5717C26.3814 32.4401 26.2747 32.261 26.2325 32.0622C26.1904 31.8635 26.2153 31.6564 26.3034 31.4733L26.3003 31.4795C26.9253 30.603 27.5409 29.8405 28.1956 29.1124L28.1753 29.1357L29.8941 26.9499L29.5831 26.2468C29.3132 25.7451 29.0853 25.222 28.9018 24.6826L28.8799 24.6076C28.7237 24.0869 28.5936 23.5925 28.4893 23.1249L28.4112 22.578L27.6299 24.453C27.0061 25.9103 26.4331 27.1598 25.9112 28.2014C25.1331 29.7639 24.4821 30.9619 23.9581 31.7951L23.8018 32.0295C23.1779 33.0181 22.5789 33.5124 22.0049 33.5124C21.4311 33.5124 21.0419 33.1478 20.8378 32.4186C20.6787 31.8345 20.5988 31.2318 20.6003 30.6264L20.6018 30.4576V30.4655L20.758 29.3718V29.4499C20.3414 30.4384 19.9248 31.3494 19.5081 32.1826C19.2544 32.6844 18.9602 33.1646 18.6284 33.6186L18.6487 33.5889C18.3268 33.9264 17.8737 34.1357 17.3722 34.1357H17.3597C17.3268 34.1389 17.2893 34.1389 17.2518 34.1389C16.8724 34.1393 16.5064 33.9984 16.2253 33.7436L16.2268 33.7451C15.6726 33.1764 15.2733 32.4748 15.0674 31.7076L15.0597 31.6749C14.7527 30.8034 14.6184 29.8805 14.6643 28.9576V28.9733C14.7878 27.7295 15.0362 26.5905 15.4003 25.5045L15.3674 25.6155L12.5566 27.2561V27.3342C13.0693 28.4116 13.2844 29.6065 13.1799 30.7951L13.1816 30.7701C13.1059 32.3153 12.6129 33.811 11.755 35.0982L11.7753 35.067C10.9175 36.4394 9.65387 37.5107 8.1597 38.1326L8.10814 38.1514C7.20994 38.548 6.23843 38.7514 5.25658 38.7483C4.60345 38.7483 3.96908 38.6608 3.36908 38.4951L3.41908 38.5061C2.93424 38.3451 2.52265 38.0166 2.25814 37.5795L2.25345 37.5701C1.8749 37.0174 1.65694 36.3705 1.62377 35.7014V35.692C1.52494 34.7438 1.69212 33.7866 2.10658 32.928L2.09252 32.9592C2.96747 31.4561 4.21344 30.2026 5.71126 29.3186L5.75814 29.2936C6.8758 28.5253 8.04939 27.8415 9.26908 27.2482L9.4347 27.1749L9.82533 26.9405C9.35658 26.5759 8.4972 25.9509 7.2472 25.0655C5.67082 24.0154 4.17023 22.8558 2.75658 21.5951L2.79564 21.6295C1.45595 20.4819 0.50547 18.9466 0.0753236 17.2357L0.0628236 17.1764C-0.116952 16.0681 0.079998 14.9315 0.6222 13.9482L0.609699 13.9749C1.44643 12.1554 2.66583 10.5379 4.1847 9.23266L4.20345 9.21704C5.82904 7.68265 7.64744 6.36638 9.61283 5.30141L9.74876 5.23423C11.6568 4.14613 13.6592 3.23253 15.7316 2.50454L15.9972 2.42329C18.1509 1.65124 20.4217 1.25639 22.7097 1.2561H22.7128C24.7096 1.1931 26.6916 1.61899 28.4862 2.49672L28.4143 2.46391C29.8205 3.10454 30.8737 4.31079 31.2955 5.78579L31.3049 5.82329C31.6714 7.30969 31.5419 8.87511 30.9362 10.2811L30.9534 10.2358C30.3181 11.7962 29.3613 13.2054 28.1455 14.3718L28.1409 14.3764C26.9271 15.58 25.4825 16.526 23.894 17.1576L23.808 17.1874C22.0097 17.9465 20.0873 18.3696 18.1362 18.4358L18.1065 18.4374C16.877 18.5696 15.6335 18.4581 14.4472 18.1093L14.5143 18.1264C13.7922 17.9 13.1249 17.526 12.5549 17.028L12.5612 17.0326C12.1752 16.7194 11.8591 16.3286 11.6331 15.8858L11.6237 15.8655C11.4675 15.4487 11.4545 15.2014 11.5847 15.1233C11.7149 15.0451 11.806 15.0321 11.8581 15.0842L12.2487 15.4749C12.6847 15.8795 13.2049 16.1983 13.7799 16.4014L13.8112 16.4108C14.6018 16.6858 15.5143 16.8451 16.4628 16.8451C16.7674 16.8451 17.0674 16.8295 17.3628 16.7967L17.3268 16.7999C19.7467 16.5231 22.0674 15.6813 24.1018 14.342L24.0441 14.378C25.6782 13.4127 27.0393 12.0468 27.9987 10.4092L28.0268 10.3561C28.4972 9.66548 28.7784 8.81235 28.7784 7.8936C28.7784 7.32954 28.6722 6.78891 28.4784 6.29204L28.4893 6.32173C28.1998 5.85965 27.8153 5.4644 27.3614 5.16216C26.9074 4.85992 26.3945 4.6576 25.8565 4.5686L25.8347 4.56547C24.1175 4.16034 22.3338 4.12465 20.6018 4.46079L20.6799 4.44829C18.1842 4.88712 15.7687 5.6988 13.5143 6.8561L13.6566 6.78891C7.25242 10.0181 3.94564 13.3249 3.73626 16.7093V16.7858C3.73626 18.1499 4.2722 19.3889 5.14564 20.3045L5.14408 20.303C6.12889 21.4 7.23492 22.3817 8.44095 23.2295L8.50189 23.2701C9.55391 24.0531 10.5452 24.9144 11.4675 25.8468L11.469 25.8499L11.6253 26.0061L16.6253 23.2733C17.1804 22.4651 17.8719 21.7598 18.6691 21.1889L18.694 21.1717C19.319 20.6467 20.1128 20.3045 20.983 20.2357L20.9972 20.2342C21.0284 20.2311 21.0643 20.2311 21.1018 20.2311C21.6847 20.2311 22.1847 20.5826 22.4003 21.0857L22.4034 21.0951C22.6324 21.6151 22.7129 22.1884 22.6362 22.7514L22.6378 22.7358L22.4862 23.5061L22.7206 23.3499C22.8592 23.2446 23.0236 23.1785 23.1964 23.1584C23.3693 23.1384 23.5444 23.165 23.7034 23.2358L23.6972 23.2326C23.8718 23.2774 24.0219 23.3889 24.1152 23.5431C24.2084 23.6975 24.2373 23.8822 24.1955 24.0576L24.1972 24.053L23.9628 24.9124C23.4941 26.7862 23.182 28.14 23.0268 28.9733C22.9264 29.3314 22.8873 29.7038 22.9112 30.0749V30.0655C22.9373 30.378 22.9763 30.5343 23.0284 30.5343C23.0806 30.5343 23.1842 30.378 23.3393 30.0655L23.5737 29.5186C23.6258 29.5186 23.6258 29.5446 23.5737 29.5968L24.433 27.7999C26.4643 23.3228 27.5576 20.8227 27.7128 20.2999L28.1816 18.817C28.2337 18.7129 28.4419 18.6093 28.8066 18.5061C29.2428 18.3913 29.693 18.3386 30.144 18.3499H30.1393C30.8686 18.3499 31.2331 18.5321 31.2331 18.8968L31.1549 19.2874C30.9577 19.8425 30.7964 20.4099 30.6722 20.9857L30.6549 21.0843C30.5763 21.6134 30.5907 22.1521 30.6972 22.6764L30.6924 22.6467L30.7705 22.9576C30.9299 23.6093 31.1722 24.1811 31.4893 24.703L31.4737 24.6764C32.0977 23.6358 32.6967 22.5686 33.2705 21.4749C33.7237 20.7201 34.1455 19.8451 34.4847 18.9295L34.5205 18.8201C34.6378 18.2311 34.7722 17.7343 34.9362 17.2499L34.9112 17.3374C34.9633 17.1811 35.1857 17.0639 35.5784 16.9858C35.9503 16.9108 36.3768 16.8686 36.8128 16.8686H36.8691H36.8659C37.5951 16.8686 37.9842 17.0509 38.0331 17.4155L37.8768 17.7264C37.6909 18.2514 37.5284 18.8826 37.419 19.5311L37.4097 19.6014C37.3607 20.135 37.3892 20.6729 37.4941 21.1983L37.4878 21.1624V21.4733C37.6674 22.1545 37.9347 22.753 38.2847 23.2951L38.269 23.2701L38.5034 23.817C39.8938 23.1438 41.4196 22.7964 42.9643 22.8014H43.0253H43.0222L43.0205 22.8061ZM9.5222 34.1389C10.6503 32.9759 11.2804 31.4186 11.2784 29.7983C11.2788 29.164 11.1829 28.5334 10.994 27.928L11.0065 27.9717L9.75658 28.753C8.48158 29.4795 7.37845 30.2905 6.38002 31.2124L6.39251 31.2014C5.62515 31.9052 5.07308 32.8121 4.80033 33.817L4.79095 33.8561C4.55658 34.8196 4.67376 35.4446 5.14251 35.7311C5.42845 35.8624 5.76439 35.9389 6.11595 35.9389C6.50033 35.9389 6.86439 35.8482 7.1847 35.6857L7.17064 35.692C8.06574 35.3706 8.86873 34.8353 9.5097 34.1326L9.51439 34.128L9.5222 34.1389ZM19.9862 26.9451C20.2467 26.2681 20.5331 25.4608 20.8456 24.5233C21.2623 23.2733 21.4056 22.5446 21.2753 22.3374C21.1451 22.13 20.8977 22.104 20.5331 22.2592C20.1122 22.4614 19.7404 22.753 19.4441 23.1139L19.4393 23.1201C19.1028 23.5477 18.7988 24.0001 18.5299 24.4732L18.5018 24.5264C18.1713 25.072 17.9129 25.6581 17.7331 26.2701L17.7191 26.3232C17.3551 27.329 17.1962 28.3974 17.2518 29.4655V29.4467C17.3039 30.4874 17.4705 31.0473 17.7518 31.1264C18.033 31.2056 18.3587 30.828 18.7284 29.9936C19.0862 29.3482 19.4049 28.5983 19.6424 27.8124L19.6643 27.728C19.8196 27.3592 19.9258 27.0983 19.9831 26.9451H19.9862ZM28.6518 31.0858C29.1902 30.8476 29.6551 30.4699 29.9982 29.9915C30.3414 29.5131 30.5503 28.9517 30.6034 28.3655L30.6049 28.353V28.2749L29.7455 29.3686L28.1847 31.0874C28.1727 31.0966 28.1629 31.1084 28.1562 31.1219C28.1494 31.1355 28.1458 31.1504 28.1455 31.1655C28.1455 31.1967 28.1612 31.2249 28.183 31.2436C28.233 31.2946 28.3893 31.2425 28.6518 31.0874V31.0858ZM35.3691 29.6014C35.9527 29.4375 36.4668 29.0875 36.8334 28.6046C37.2 28.1219 37.3991 27.5326 37.4003 26.9264V26.8655V26.8686C37.3847 26.5561 37.3284 26.2624 37.2362 25.9842L37.2424 26.0076C36.6347 26.5483 36.1362 27.1951 35.7753 27.9249L35.758 27.9608C35.2883 28.8973 35.1571 29.4431 35.3643 29.5983L35.3691 29.6014Z" fill="#FCA311"/>
</g>
</svg>
