<svg width="40" height="40" viewBox="0 0 40 40" fill="none" xmlns="http://www.w3.org/2000/svg">
<path d="M29.7839 10.3041C30.8479 10.5516 31.8149 11.1088 32.5626 11.9053C32.9745 12.3364 33.3322 12.8162 33.6276 13.3341C33.6414 13.3903 31.7101 14.6878 30.5389 15.4116C30.4964 15.4403 30.3276 15.2566 30.1364 14.9741C29.9224 14.6063 29.6187 14.2987 29.2536 14.0801C28.8886 13.8615 28.4741 13.739 28.0489 13.7241C26.7026 13.6316 25.8351 14.3366 25.8414 15.5153C25.8297 15.8049 25.8958 16.0923 26.0326 16.3478C26.3289 16.9603 26.8789 17.3278 28.6064 18.0766C31.7864 19.4453 33.1514 20.3478 33.9939 21.6303C34.4701 22.4406 34.7634 23.3453 34.8532 24.2809C34.943 25.2165 34.8272 26.1604 34.5139 27.0466C34.0832 28.0183 33.4003 28.8572 32.536 29.4759C31.6717 30.0947 30.6576 30.4708 29.5989 30.5653C28.4735 30.6944 27.3364 30.6826 26.2139 30.5303C24.4945 30.2478 22.9106 29.4226 21.6939 28.1753C21.2341 27.6576 20.8449 27.0814 20.5364 26.4616C20.6661 26.365 20.8027 26.2781 20.9451 26.2016C21.1426 26.0891 21.8901 25.6591 22.5951 25.2503L23.8751 24.5003L24.1426 24.8903C24.5932 25.5346 25.1667 26.0835 25.8301 26.5053C26.5001 26.8728 27.2591 27.047 28.0224 27.0084C28.7856 26.9697 29.5231 26.7198 30.1526 26.2866C30.4773 25.9701 30.6803 25.5494 30.726 25.0982C30.7717 24.6471 30.6573 24.1943 30.4026 23.8191C30.0576 23.3253 29.3526 22.9103 27.3489 22.0416C25.7777 21.5118 24.3466 20.6336 23.1626 19.4728C22.5988 18.8303 22.1824 18.0721 21.9426 17.2516C21.7653 16.3168 21.7392 15.3596 21.8651 14.4166C22.1003 13.3314 22.6635 12.3447 23.4783 11.5903C24.293 10.8359 25.32 10.3502 26.4201 10.1991C27.5403 10.0652 28.6742 10.1006 29.7839 10.3041ZM19.3551 12.1578L19.3689 13.9753H13.5814V30.4103H9.50007V13.9791H3.71257V12.1941C3.69718 11.5828 3.71387 10.9711 3.76257 10.3616C3.78382 10.3328 7.30257 10.3191 11.5689 10.3266L19.3326 10.3478L19.3551 12.1578Z" fill="#FCA311"/>
</svg>
